<mxfile host="app.diagrams.net" modified="2020-12-30T09:43:32.761Z" agent="5.0 (Macintosh; Intel Mac OS X 10_15_7) AppleWebKit/537.36 (KHTML, like Gecko) Chrome/87.0.4280.88 Safari/537.36" etag="QYg-nqnfURjqq2r1L1fs" version="14.0.1" type="github">
  <diagram id="adaZDFtTdaTdH5FZkwva" name="第 1 页">
    <mxGraphModel dx="813" dy="1499" grid="1" gridSize="10" guides="1" tooltips="1" connect="1" arrows="1" fold="1" page="1" pageScale="1" pageWidth="827" pageHeight="1169" math="0" shadow="0">
      <root>
        <mxCell id="0" />
        <mxCell id="1" parent="0" />
        <mxCell id="AnFC6immAzE9Fkh495sT-370" value="" style="rounded=0;whiteSpace=wrap;html=1;fontSize=10;align=center;dashed=1;" parent="1" vertex="1">
          <mxGeometry x="2000" y="-865" width="341" height="85" as="geometry" />
        </mxCell>
        <mxCell id="AnFC6immAzE9Fkh495sT-204" value="" style="rounded=0;whiteSpace=wrap;html=1;fontSize=10;align=center;dashed=1;" parent="1" vertex="1">
          <mxGeometry x="1040" y="-905" width="341" height="85" as="geometry" />
        </mxCell>
        <mxCell id="AnFC6immAzE9Fkh495sT-1" value="&lt;div&gt;&lt;span&gt;积分类型管理&lt;/span&gt;&lt;/div&gt;" style="rounded=1;whiteSpace=wrap;html=1;fillColor=#f5f5f5;strokeColor=#666666;fontColor=#333333;glass=0;sketch=0;" parent="1" vertex="1">
          <mxGeometry x="40" y="-1140" width="600" height="40" as="geometry" />
        </mxCell>
        <mxCell id="AnFC6immAzE9Fkh495sT-2" value="积分场景scene表 " style="swimlane;childLayout=stackLayout;horizontal=1;startSize=30;horizontalStack=0;rounded=1;fontSize=14;fontStyle=0;strokeWidth=2;resizeParent=0;resizeLast=1;shadow=0;dashed=0;align=center;" parent="1" vertex="1">
          <mxGeometry x="50" y="-940" width="280" height="280" as="geometry" />
        </mxCell>
        <mxCell id="AnFC6immAzE9Fkh495sT-3" value="id  自增ID&#xa;name  类型名称&#xa;&#xa;appid        应用ID(appid可确定CG）&#xa;catelog_id     分类ID&#xa;op_type    类型 1-固定操作 2范围操作&#xa;num          固定积分数&#xa;max_num 最大积分数&#xa;&#xa;day_threshold    日阈值&#xa;mon_threshold   月阈值&#xa;&#xa;empl_id       申请Id&#xa;empl_name 申请人名称&#xa;dept_id        部门人Id&#xa;dept_name 部门名称" style="align=left;strokeColor=none;fillColor=none;spacingLeft=4;fontSize=12;verticalAlign=top;resizable=0;rotatable=0;part=1;" parent="AnFC6immAzE9Fkh495sT-2" vertex="1">
          <mxGeometry y="30" width="280" height="250" as="geometry" />
        </mxCell>
        <mxCell id="AnFC6immAzE9Fkh495sT-5" value="分类catalog (配置文件)" style="swimlane;childLayout=stackLayout;horizontal=1;startSize=30;horizontalStack=0;rounded=1;fontSize=14;fontStyle=0;strokeWidth=2;resizeParent=0;resizeLast=1;shadow=0;dashed=0;align=center;" parent="1" vertex="1">
          <mxGeometry x="50" y="-1080" width="280" height="120" as="geometry" />
        </mxCell>
        <mxCell id="AnFC6immAzE9Fkh495sT-6" value="id       自增ID&#xa;type   类型 1-增  2-减&#xa;name 名称&#xa;income 收入方式 1-确收 2-预收（部分确部分预？）&#xa;&#xa;&#xa;&#xa;" style="align=left;strokeColor=none;fillColor=none;spacingLeft=4;fontSize=12;verticalAlign=top;resizable=0;rotatable=0;part=1;" parent="AnFC6immAzE9Fkh495sT-5" vertex="1">
          <mxGeometry y="30" width="280" height="90" as="geometry" />
        </mxCell>
        <mxCell id="AnFC6immAzE9Fkh495sT-10" value="应用appid(配置文件/汪洋)" style="swimlane;childLayout=stackLayout;horizontal=1;startSize=30;horizontalStack=0;rounded=1;fontSize=14;fontStyle=0;strokeWidth=2;resizeParent=0;resizeLast=1;shadow=0;dashed=0;align=center;" parent="1" vertex="1">
          <mxGeometry x="350" y="-1080" width="280" height="120" as="geometry" />
        </mxCell>
        <mxCell id="AnFC6immAzE9Fkh495sT-11" value="id       自增ID&#xa;appid           应用ID&#xa;name           名称&#xa;admin_id     创建者&#xa;manger_ids 管理员ID&#xa;&#xa;&#xa;&#xa;" style="align=left;strokeColor=none;fillColor=none;spacingLeft=4;fontSize=12;verticalAlign=top;resizable=0;rotatable=0;part=1;" parent="AnFC6immAzE9Fkh495sT-10" vertex="1">
          <mxGeometry y="30" width="280" height="90" as="geometry" />
        </mxCell>
        <mxCell id="AnFC6immAzE9Fkh495sT-13" value="scene_id&amp;nbsp;" style="rounded=1;whiteSpace=wrap;html=1;fillColor=#f5f5f5;strokeColor=#666666;fontColor=#333333;glass=0;sketch=0;" parent="1" vertex="1">
          <mxGeometry x="420" y="-820" width="120" height="40" as="geometry" />
        </mxCell>
        <mxCell id="AnFC6immAzE9Fkh495sT-14" value="catelog" style="rounded=1;whiteSpace=wrap;html=1;fillColor=#f5f5f5;strokeColor=#666666;fontColor=#333333;glass=0;sketch=0;verticalAlign=middle;" parent="1" vertex="1">
          <mxGeometry x="420" y="-706" width="120" height="40" as="geometry" />
        </mxCell>
        <mxCell id="AnFC6immAzE9Fkh495sT-16" value="appid" style="rounded=1;whiteSpace=wrap;html=1;fillColor=#f5f5f5;strokeColor=#666666;fontColor=#333333;glass=0;sketch=0;" parent="1" vertex="1">
          <mxGeometry x="420" y="-936" width="120" height="40" as="geometry" />
        </mxCell>
        <mxCell id="AnFC6immAzE9Fkh495sT-22" value="创建" style="rhombus;whiteSpace=wrap;html=1;" parent="1" vertex="1">
          <mxGeometry x="445" y="-870" width="70" height="30" as="geometry" />
        </mxCell>
        <mxCell id="AnFC6immAzE9Fkh495sT-25" value="" style="endArrow=none;html=1;entryX=0.5;entryY=1;entryDx=0;entryDy=0;exitX=0.5;exitY=0;exitDx=0;exitDy=0;" parent="1" source="AnFC6immAzE9Fkh495sT-22" target="AnFC6immAzE9Fkh495sT-16" edge="1">
          <mxGeometry width="50" height="50" relative="1" as="geometry">
            <mxPoint x="460" y="-820" as="sourcePoint" />
            <mxPoint x="510" y="-870" as="targetPoint" />
          </mxGeometry>
        </mxCell>
        <mxCell id="AnFC6immAzE9Fkh495sT-26" value="1" style="edgeLabel;html=1;align=center;verticalAlign=middle;resizable=0;points=[];" parent="AnFC6immAzE9Fkh495sT-25" vertex="1" connectable="0">
          <mxGeometry y="-1" relative="1" as="geometry">
            <mxPoint as="offset" />
          </mxGeometry>
        </mxCell>
        <mxCell id="AnFC6immAzE9Fkh495sT-27" value="" style="endArrow=none;html=1;entryX=0.5;entryY=1;entryDx=0;entryDy=0;exitX=0.5;exitY=0;exitDx=0;exitDy=0;" parent="1" source="AnFC6immAzE9Fkh495sT-13" target="AnFC6immAzE9Fkh495sT-22" edge="1">
          <mxGeometry width="50" height="50" relative="1" as="geometry">
            <mxPoint x="490" y="-860" as="sourcePoint" />
            <mxPoint x="490" y="-890" as="targetPoint" />
          </mxGeometry>
        </mxCell>
        <mxCell id="AnFC6immAzE9Fkh495sT-28" value="n" style="edgeLabel;html=1;align=center;verticalAlign=middle;resizable=0;points=[];" parent="AnFC6immAzE9Fkh495sT-27" vertex="1" connectable="0">
          <mxGeometry y="-1" relative="1" as="geometry">
            <mxPoint as="offset" />
          </mxGeometry>
        </mxCell>
        <mxCell id="AnFC6immAzE9Fkh495sT-29" value="创建" style="rhombus;whiteSpace=wrap;html=1;verticalAlign=middle;" parent="1" vertex="1">
          <mxGeometry x="445" y="-760" width="70" height="30" as="geometry" />
        </mxCell>
        <mxCell id="AnFC6immAzE9Fkh495sT-30" value="" style="endArrow=none;html=1;entryX=0.5;entryY=0;entryDx=0;entryDy=0;exitX=0.5;exitY=1;exitDx=0;exitDy=0;" parent="1" source="AnFC6immAzE9Fkh495sT-13" target="AnFC6immAzE9Fkh495sT-29" edge="1">
          <mxGeometry width="50" height="50" relative="1" as="geometry">
            <mxPoint x="490" y="-850" as="sourcePoint" />
            <mxPoint x="490" y="-890" as="targetPoint" />
          </mxGeometry>
        </mxCell>
        <mxCell id="AnFC6immAzE9Fkh495sT-31" value="n" style="edgeLabel;html=1;align=center;verticalAlign=middle;resizable=0;points=[];" parent="AnFC6immAzE9Fkh495sT-30" vertex="1" connectable="0">
          <mxGeometry y="-1" relative="1" as="geometry">
            <mxPoint as="offset" />
          </mxGeometry>
        </mxCell>
        <mxCell id="AnFC6immAzE9Fkh495sT-32" value="" style="endArrow=none;html=1;entryX=0.5;entryY=0;entryDx=0;entryDy=0;exitX=0.5;exitY=1;exitDx=0;exitDy=0;verticalAlign=middle;" parent="1" source="AnFC6immAzE9Fkh495sT-29" target="AnFC6immAzE9Fkh495sT-14" edge="1">
          <mxGeometry width="50" height="50" relative="1" as="geometry">
            <mxPoint x="479.5" y="-682" as="sourcePoint" />
            <mxPoint x="479.5" y="-636" as="targetPoint" />
          </mxGeometry>
        </mxCell>
        <mxCell id="AnFC6immAzE9Fkh495sT-33" value="1" style="edgeLabel;html=1;align=center;verticalAlign=middle;resizable=0;points=[];" parent="AnFC6immAzE9Fkh495sT-32" vertex="1" connectable="0">
          <mxGeometry y="-1" relative="1" as="geometry">
            <mxPoint as="offset" />
          </mxGeometry>
        </mxCell>
        <mxCell id="AnFC6immAzE9Fkh495sT-37" value="&lt;h1&gt;&lt;br&gt;&lt;/h1&gt;&lt;div&gt;&lt;div&gt;&lt;br&gt;&lt;/div&gt;&lt;div&gt;&lt;br&gt;&lt;/div&gt;&lt;/div&gt;&lt;div&gt;&lt;br&gt;&lt;/div&gt;" style="text;html=1;strokeColor=none;fillColor=none;spacing=5;spacingTop=-20;whiteSpace=wrap;overflow=hidden;rounded=0;" parent="1" vertex="1">
          <mxGeometry x="100" y="-635" width="590" height="250" as="geometry" />
        </mxCell>
        <mxCell id="AnFC6immAzE9Fkh495sT-49" value="&lt;h1 style=&quot;color: rgb(0 , 0 , 0) ; font-family: &amp;#34;helvetica&amp;#34; ; font-style: normal ; letter-spacing: normal ; text-align: left ; text-indent: 0px ; text-transform: none ; word-spacing: 0px ; background-color: rgb(248 , 249 , 250) ; font-size: 18px&quot;&gt;Catelog分类(暂定)&lt;/h1&gt;" style="shape=table;html=1;whiteSpace=wrap;startSize=30;container=1;collapsible=0;childLayout=tableLayout;fontStyle=1;align=center;" parent="1" vertex="1">
          <mxGeometry x="50" y="-600" width="350" height="255" as="geometry" />
        </mxCell>
        <mxCell id="AnFC6immAzE9Fkh495sT-83" style="shape=partialRectangle;html=1;whiteSpace=wrap;collapsible=0;dropTarget=0;pointerEvents=0;fillColor=none;top=0;left=0;bottom=0;right=0;points=[[0,0.5],[1,0.5]];portConstraint=eastwest;" parent="AnFC6immAzE9Fkh495sT-49" vertex="1">
          <mxGeometry y="30" width="350" height="25" as="geometry" />
        </mxCell>
        <mxCell id="AnFC6immAzE9Fkh495sT-84" value="名称" style="shape=partialRectangle;html=1;whiteSpace=wrap;connectable=0;fillColor=none;top=0;left=0;bottom=0;right=0;overflow=hidden;align=left;" parent="AnFC6immAzE9Fkh495sT-83" vertex="1">
          <mxGeometry width="120" height="25" as="geometry" />
        </mxCell>
        <mxCell id="AnFC6immAzE9Fkh495sT-85" value="类型" style="shape=partialRectangle;html=1;whiteSpace=wrap;connectable=0;fillColor=none;top=0;left=0;bottom=0;right=0;overflow=hidden;" parent="AnFC6immAzE9Fkh495sT-83" vertex="1">
          <mxGeometry x="120" width="90" height="25" as="geometry" />
        </mxCell>
        <mxCell id="AnFC6immAzE9Fkh495sT-86" value="输入方式" style="shape=partialRectangle;html=1;whiteSpace=wrap;connectable=0;fillColor=none;top=0;left=0;bottom=0;right=0;overflow=hidden;" parent="AnFC6immAzE9Fkh495sT-83" vertex="1">
          <mxGeometry x="210" width="140" height="25" as="geometry" />
        </mxCell>
        <mxCell id="AnFC6immAzE9Fkh495sT-50" value="" style="shape=partialRectangle;html=1;whiteSpace=wrap;collapsible=0;dropTarget=0;pointerEvents=0;fillColor=none;top=0;left=0;bottom=0;right=0;points=[[0,0.5],[1,0.5]];portConstraint=eastwest;" parent="AnFC6immAzE9Fkh495sT-49" vertex="1">
          <mxGeometry y="55" width="350" height="25" as="geometry" />
        </mxCell>
        <mxCell id="AnFC6immAzE9Fkh495sT-51" value="&lt;div&gt;发放&lt;/div&gt;" style="shape=partialRectangle;html=1;whiteSpace=wrap;connectable=0;fillColor=none;top=0;left=0;bottom=0;right=0;overflow=hidden;align=left;" parent="AnFC6immAzE9Fkh495sT-50" vertex="1">
          <mxGeometry width="120" height="25" as="geometry" />
        </mxCell>
        <mxCell id="AnFC6immAzE9Fkh495sT-52" value="+" style="shape=partialRectangle;html=1;whiteSpace=wrap;connectable=0;fillColor=none;top=0;left=0;bottom=0;right=0;overflow=hidden;" parent="AnFC6immAzE9Fkh495sT-50" vertex="1">
          <mxGeometry x="120" width="90" height="25" as="geometry" />
        </mxCell>
        <mxCell id="AnFC6immAzE9Fkh495sT-53" value="确收" style="shape=partialRectangle;html=1;whiteSpace=wrap;connectable=0;fillColor=none;top=0;left=0;bottom=0;right=0;overflow=hidden;" parent="AnFC6immAzE9Fkh495sT-50" vertex="1">
          <mxGeometry x="210" width="140" height="25" as="geometry" />
        </mxCell>
        <mxCell id="AnFC6immAzE9Fkh495sT-54" value="" style="shape=partialRectangle;html=1;whiteSpace=wrap;collapsible=0;dropTarget=0;pointerEvents=0;fillColor=none;top=0;left=0;bottom=0;right=0;points=[[0,0.5],[1,0.5]];portConstraint=eastwest;" parent="AnFC6immAzE9Fkh495sT-49" vertex="1">
          <mxGeometry y="80" width="350" height="25" as="geometry" />
        </mxCell>
        <mxCell id="AnFC6immAzE9Fkh495sT-55" value="&lt;div&gt;旧货币兑换&lt;/div&gt;&lt;div&gt;&lt;br&gt;&lt;/div&gt;" style="shape=partialRectangle;html=1;whiteSpace=wrap;connectable=0;fillColor=none;top=0;left=0;bottom=0;right=0;overflow=hidden;align=left;" parent="AnFC6immAzE9Fkh495sT-54" vertex="1">
          <mxGeometry width="120" height="25" as="geometry" />
        </mxCell>
        <mxCell id="AnFC6immAzE9Fkh495sT-56" value="+" style="shape=partialRectangle;html=1;whiteSpace=wrap;connectable=0;fillColor=none;top=0;left=0;bottom=0;right=0;overflow=hidden;" parent="AnFC6immAzE9Fkh495sT-54" vertex="1">
          <mxGeometry x="120" width="90" height="25" as="geometry" />
        </mxCell>
        <mxCell id="AnFC6immAzE9Fkh495sT-57" value="&lt;span&gt;确收&lt;/span&gt;" style="shape=partialRectangle;html=1;whiteSpace=wrap;connectable=0;fillColor=none;top=0;left=0;bottom=0;right=0;overflow=hidden;" parent="AnFC6immAzE9Fkh495sT-54" vertex="1">
          <mxGeometry x="210" width="140" height="25" as="geometry" />
        </mxCell>
        <mxCell id="AnFC6immAzE9Fkh495sT-58" value="" style="shape=partialRectangle;html=1;whiteSpace=wrap;collapsible=0;dropTarget=0;pointerEvents=0;fillColor=none;top=0;left=0;bottom=0;right=0;points=[[0,0.5],[1,0.5]];portConstraint=eastwest;" parent="AnFC6immAzE9Fkh495sT-49" vertex="1">
          <mxGeometry y="105" width="350" height="25" as="geometry" />
        </mxCell>
        <mxCell id="AnFC6immAzE9Fkh495sT-59" value="&lt;span&gt;消耗-&lt;/span&gt;&lt;span&gt;无价虚拟商品&lt;br&gt;&lt;/span&gt;" style="shape=partialRectangle;html=1;whiteSpace=wrap;connectable=0;fillColor=none;top=0;left=0;bottom=0;right=0;overflow=hidden;align=left;" parent="AnFC6immAzE9Fkh495sT-58" vertex="1">
          <mxGeometry width="120" height="25" as="geometry" />
        </mxCell>
        <mxCell id="AnFC6immAzE9Fkh495sT-60" value="&lt;div style=&quot;text-align: left&quot;&gt;-&lt;/div&gt;" style="shape=partialRectangle;html=1;whiteSpace=wrap;connectable=0;fillColor=none;top=0;left=0;bottom=0;right=0;overflow=hidden;" parent="AnFC6immAzE9Fkh495sT-58" vertex="1">
          <mxGeometry x="120" width="90" height="25" as="geometry" />
        </mxCell>
        <mxCell id="AnFC6immAzE9Fkh495sT-61" value="&lt;span&gt;确收&lt;/span&gt;" style="shape=partialRectangle;html=1;whiteSpace=wrap;connectable=0;fillColor=none;top=0;left=0;bottom=0;right=0;overflow=hidden;" parent="AnFC6immAzE9Fkh495sT-58" vertex="1">
          <mxGeometry x="210" width="140" height="25" as="geometry" />
        </mxCell>
        <mxCell id="AnFC6immAzE9Fkh495sT-62" style="shape=partialRectangle;html=1;whiteSpace=wrap;collapsible=0;dropTarget=0;pointerEvents=0;fillColor=none;top=0;left=0;bottom=0;right=0;points=[[0,0.5],[1,0.5]];portConstraint=eastwest;" parent="AnFC6immAzE9Fkh495sT-49" vertex="1">
          <mxGeometry y="130" width="350" height="25" as="geometry" />
        </mxCell>
        <mxCell id="AnFC6immAzE9Fkh495sT-63" value="&lt;div style=&quot;&quot;&gt;实物兑换&lt;/div&gt;" style="shape=partialRectangle;html=1;whiteSpace=wrap;connectable=0;fillColor=none;top=0;left=0;bottom=0;right=0;overflow=hidden;align=left;" parent="AnFC6immAzE9Fkh495sT-62" vertex="1">
          <mxGeometry width="120" height="25" as="geometry" />
        </mxCell>
        <mxCell id="AnFC6immAzE9Fkh495sT-64" value="-" style="shape=partialRectangle;html=1;whiteSpace=wrap;connectable=0;fillColor=none;top=0;left=0;bottom=0;right=0;overflow=hidden;" parent="AnFC6immAzE9Fkh495sT-62" vertex="1">
          <mxGeometry x="120" width="90" height="25" as="geometry" />
        </mxCell>
        <mxCell id="AnFC6immAzE9Fkh495sT-65" value="预收-单次预收" style="shape=partialRectangle;html=1;whiteSpace=wrap;connectable=0;fillColor=none;top=0;left=0;bottom=0;right=0;overflow=hidden;" parent="AnFC6immAzE9Fkh495sT-62" vertex="1">
          <mxGeometry x="210" width="140" height="25" as="geometry" />
        </mxCell>
        <mxCell id="AnFC6immAzE9Fkh495sT-66" style="shape=partialRectangle;html=1;whiteSpace=wrap;collapsible=0;dropTarget=0;pointerEvents=0;fillColor=none;top=0;left=0;bottom=0;right=0;points=[[0,0.5],[1,0.5]];portConstraint=eastwest;" parent="AnFC6immAzE9Fkh495sT-49" vertex="1">
          <mxGeometry y="155" width="350" height="25" as="geometry" />
        </mxCell>
        <mxCell id="AnFC6immAzE9Fkh495sT-67" value="&lt;div style=&quot;&quot;&gt;虚拟物品兑换&lt;/div&gt;" style="shape=partialRectangle;html=1;whiteSpace=wrap;connectable=0;fillColor=none;top=0;left=0;bottom=0;right=0;overflow=hidden;align=left;" parent="AnFC6immAzE9Fkh495sT-66" vertex="1">
          <mxGeometry width="120" height="25" as="geometry" />
        </mxCell>
        <mxCell id="AnFC6immAzE9Fkh495sT-68" value="-" style="shape=partialRectangle;html=1;whiteSpace=wrap;connectable=0;fillColor=none;top=0;left=0;bottom=0;right=0;overflow=hidden;" parent="AnFC6immAzE9Fkh495sT-66" vertex="1">
          <mxGeometry x="120" width="90" height="25" as="geometry" />
        </mxCell>
        <mxCell id="AnFC6immAzE9Fkh495sT-69" value="确收" style="shape=partialRectangle;html=1;whiteSpace=wrap;connectable=0;fillColor=none;top=0;left=0;bottom=0;right=0;overflow=hidden;" parent="AnFC6immAzE9Fkh495sT-66" vertex="1">
          <mxGeometry x="210" width="140" height="25" as="geometry" />
        </mxCell>
        <mxCell id="AnFC6immAzE9Fkh495sT-70" style="shape=partialRectangle;html=1;whiteSpace=wrap;collapsible=0;dropTarget=0;pointerEvents=0;fillColor=none;top=0;left=0;bottom=0;right=0;points=[[0,0.5],[1,0.5]];portConstraint=eastwest;" parent="AnFC6immAzE9Fkh495sT-49" vertex="1">
          <mxGeometry y="180" width="350" height="25" as="geometry" />
        </mxCell>
        <mxCell id="AnFC6immAzE9Fkh495sT-71" value="&lt;div&gt;学费兑换&lt;/div&gt;" style="shape=partialRectangle;html=1;whiteSpace=wrap;connectable=0;fillColor=none;top=0;left=0;bottom=0;right=0;overflow=hidden;align=left;" parent="AnFC6immAzE9Fkh495sT-70" vertex="1">
          <mxGeometry width="120" height="25" as="geometry" />
        </mxCell>
        <mxCell id="AnFC6immAzE9Fkh495sT-72" value="-" style="shape=partialRectangle;html=1;whiteSpace=wrap;connectable=0;fillColor=none;top=0;left=0;bottom=0;right=0;overflow=hidden;" parent="AnFC6immAzE9Fkh495sT-70" vertex="1">
          <mxGeometry x="120" width="90" height="25" as="geometry" />
        </mxCell>
        <mxCell id="AnFC6immAzE9Fkh495sT-73" value="&lt;span style=&quot;text-align: left&quot;&gt;预收-&lt;/span&gt;&lt;span&gt;分次确收&lt;/span&gt;&lt;span style=&quot;text-align: left&quot;&gt;&lt;br&gt;&lt;/span&gt;" style="shape=partialRectangle;html=1;whiteSpace=wrap;connectable=0;fillColor=none;top=0;left=0;bottom=0;right=0;overflow=hidden;" parent="AnFC6immAzE9Fkh495sT-70" vertex="1">
          <mxGeometry x="210" width="140" height="25" as="geometry" />
        </mxCell>
        <mxCell id="AnFC6immAzE9Fkh495sT-75" style="shape=partialRectangle;html=1;whiteSpace=wrap;collapsible=0;dropTarget=0;pointerEvents=0;fillColor=none;top=0;left=0;bottom=0;right=0;points=[[0,0.5],[1,0.5]];portConstraint=eastwest;" parent="AnFC6immAzE9Fkh495sT-49" vertex="1">
          <mxGeometry y="205" width="350" height="25" as="geometry" />
        </mxCell>
        <mxCell id="AnFC6immAzE9Fkh495sT-76" value="&lt;span style=&quot;&quot;&gt;扣除&lt;/span&gt;" style="shape=partialRectangle;html=1;whiteSpace=wrap;connectable=0;fillColor=none;top=0;left=0;bottom=0;right=0;overflow=hidden;align=left;" parent="AnFC6immAzE9Fkh495sT-75" vertex="1">
          <mxGeometry width="120" height="25" as="geometry" />
        </mxCell>
        <mxCell id="AnFC6immAzE9Fkh495sT-77" value="-" style="shape=partialRectangle;html=1;whiteSpace=wrap;connectable=0;fillColor=none;top=0;left=0;bottom=0;right=0;overflow=hidden;" parent="AnFC6immAzE9Fkh495sT-75" vertex="1">
          <mxGeometry x="120" width="90" height="25" as="geometry" />
        </mxCell>
        <mxCell id="AnFC6immAzE9Fkh495sT-78" value="确收" style="shape=partialRectangle;html=1;whiteSpace=wrap;connectable=0;fillColor=none;top=0;left=0;bottom=0;right=0;overflow=hidden;" parent="AnFC6immAzE9Fkh495sT-75" vertex="1">
          <mxGeometry x="210" width="140" height="25" as="geometry" />
        </mxCell>
        <mxCell id="AnFC6immAzE9Fkh495sT-79" style="shape=partialRectangle;html=1;whiteSpace=wrap;collapsible=0;dropTarget=0;pointerEvents=0;fillColor=none;top=0;left=0;bottom=0;right=0;points=[[0,0.5],[1,0.5]];portConstraint=eastwest;" parent="AnFC6immAzE9Fkh495sT-49" vertex="1">
          <mxGeometry y="230" width="350" height="25" as="geometry" />
        </mxCell>
        <mxCell id="AnFC6immAzE9Fkh495sT-80" value="&lt;span style=&quot;&quot;&gt;过期&lt;/span&gt;" style="shape=partialRectangle;html=1;whiteSpace=wrap;connectable=0;fillColor=none;top=0;left=0;bottom=0;right=0;overflow=hidden;align=left;" parent="AnFC6immAzE9Fkh495sT-79" vertex="1">
          <mxGeometry width="120" height="25" as="geometry" />
        </mxCell>
        <mxCell id="AnFC6immAzE9Fkh495sT-81" value="-" style="shape=partialRectangle;html=1;whiteSpace=wrap;connectable=0;fillColor=none;top=0;left=0;bottom=0;right=0;overflow=hidden;" parent="AnFC6immAzE9Fkh495sT-79" vertex="1">
          <mxGeometry x="120" width="90" height="25" as="geometry" />
        </mxCell>
        <mxCell id="AnFC6immAzE9Fkh495sT-82" value="确收" style="shape=partialRectangle;html=1;whiteSpace=wrap;connectable=0;fillColor=none;top=0;left=0;bottom=0;right=0;overflow=hidden;" parent="AnFC6immAzE9Fkh495sT-79" vertex="1">
          <mxGeometry x="210" width="140" height="25" as="geometry" />
        </mxCell>
        <mxCell id="AnFC6immAzE9Fkh495sT-87" value="用户" style="shape=umlActor;verticalLabelPosition=bottom;verticalAlign=top;html=1;outlineConnect=0;align=left;" parent="1" vertex="1">
          <mxGeometry x="40" y="-320" width="30" height="60" as="geometry" />
        </mxCell>
        <mxCell id="AnFC6immAzE9Fkh495sT-88" value="平台积分系统" style="rounded=1;whiteSpace=wrap;html=1;fillColor=#f5f5f5;strokeColor=#666666;fontColor=#333333;glass=0;sketch=0;align=center;" parent="1" vertex="1">
          <mxGeometry x="200" y="-310" width="120" height="40" as="geometry" />
        </mxCell>
        <mxCell id="AnFC6immAzE9Fkh495sT-89" value="业务线金币系统" style="rounded=1;whiteSpace=wrap;html=1;fillColor=#f5f5f5;strokeColor=#666666;fontColor=#333333;glass=0;sketch=0;align=center;" parent="1" vertex="1">
          <mxGeometry x="450" y="-310" width="120" height="40" as="geometry" />
        </mxCell>
        <mxCell id="AnFC6immAzE9Fkh495sT-90" value="" style="endArrow=classic;html=1;" parent="1" source="AnFC6immAzE9Fkh495sT-87" edge="1">
          <mxGeometry width="50" height="50" relative="1" as="geometry">
            <mxPoint x="50" y="-150" as="sourcePoint" />
            <mxPoint x="60" y="160" as="targetPoint" />
          </mxGeometry>
        </mxCell>
        <mxCell id="AnFC6immAzE9Fkh495sT-92" value="" style="endArrow=classic;html=1;" parent="1" edge="1">
          <mxGeometry width="50" height="50" relative="1" as="geometry">
            <mxPoint x="257.6633333333334" y="-270" as="sourcePoint" />
            <mxPoint x="262.33000000000004" y="150" as="targetPoint" />
          </mxGeometry>
        </mxCell>
        <mxCell id="AnFC6immAzE9Fkh495sT-93" value="" style="endArrow=classic;html=1;" parent="1" edge="1">
          <mxGeometry width="50" height="50" relative="1" as="geometry">
            <mxPoint x="515.0033333333334" y="-270" as="sourcePoint" />
            <mxPoint x="519.67" y="150" as="targetPoint" />
          </mxGeometry>
        </mxCell>
        <mxCell id="AnFC6immAzE9Fkh495sT-94" value="" style="endArrow=classic;html=1;" parent="1" edge="1">
          <mxGeometry width="50" height="50" relative="1" as="geometry">
            <mxPoint x="60" y="-220" as="sourcePoint" />
            <mxPoint x="260" y="-220" as="targetPoint" />
          </mxGeometry>
        </mxCell>
        <mxCell id="AnFC6immAzE9Fkh495sT-95" value="&lt;font style=&quot;font-size: 10px&quot;&gt;cg、金币数/平台积分数&lt;/font&gt;" style="edgeLabel;html=1;align=center;verticalAlign=middle;resizable=0;points=[];" parent="AnFC6immAzE9Fkh495sT-94" vertex="1" connectable="0">
          <mxGeometry x="-0.21" y="4" relative="1" as="geometry">
            <mxPoint as="offset" />
          </mxGeometry>
        </mxCell>
        <mxCell id="AnFC6immAzE9Fkh495sT-97" value="" style="endArrow=classic;html=1;" parent="1" edge="1">
          <mxGeometry width="50" height="50" relative="1" as="geometry">
            <mxPoint x="260" y="-210" as="sourcePoint" />
            <mxPoint x="260" y="-160" as="targetPoint" />
            <Array as="points">
              <mxPoint x="280" y="-210" />
              <mxPoint x="280" y="-160" />
            </Array>
          </mxGeometry>
        </mxCell>
        <mxCell id="AnFC6immAzE9Fkh495sT-99" value="" style="endArrow=classic;html=1;fontSize=10;" parent="1" edge="1">
          <mxGeometry width="50" height="50" relative="1" as="geometry">
            <mxPoint x="260" y="-100" as="sourcePoint" />
            <mxPoint x="520" y="-100" as="targetPoint" />
          </mxGeometry>
        </mxCell>
        <mxCell id="AnFC6immAzE9Fkh495sT-101" value="通知业务线系统扣除金币&lt;br&gt;tal_id、num" style="edgeLabel;html=1;align=center;verticalAlign=middle;resizable=0;points=[];fontSize=10;" parent="AnFC6immAzE9Fkh495sT-99" vertex="1" connectable="0">
          <mxGeometry x="-0.0341" y="1" relative="1" as="geometry">
            <mxPoint as="offset" />
          </mxGeometry>
        </mxCell>
        <mxCell id="AnFC6immAzE9Fkh495sT-100" value="&lt;br style=&quot;text-align: left&quot;&gt;&lt;font style=&quot;text-align: left&quot;&gt;金币=&amp;gt;积分&lt;br&gt;或积分=&amp;gt;金币&lt;/font&gt;" style="shape=note;whiteSpace=wrap;html=1;backgroundOutline=1;darkOpacity=0.05;fontSize=10;align=center;" parent="1" vertex="1">
          <mxGeometry x="284" y="-230" width="100" height="80" as="geometry" />
        </mxCell>
        <mxCell id="AnFC6immAzE9Fkh495sT-106" value="" style="endArrow=classic;html=1;fontSize=10;" parent="1" edge="1">
          <mxGeometry width="50" height="50" relative="1" as="geometry">
            <mxPoint x="519" y="-90" as="sourcePoint" />
            <mxPoint x="519" y="-30" as="targetPoint" />
            <Array as="points">
              <mxPoint x="549" y="-90" />
              <mxPoint x="549" y="-30" />
            </Array>
          </mxGeometry>
        </mxCell>
        <mxCell id="AnFC6immAzE9Fkh495sT-107" value="业务线完成逻辑&lt;br&gt;&lt;div style=&quot;text-align: left&quot;&gt;&lt;span&gt;扣除用户积分完成&lt;/span&gt;&lt;/div&gt;" style="shape=note;whiteSpace=wrap;html=1;backgroundOutline=1;darkOpacity=0.05;fontSize=10;align=center;" parent="1" vertex="1">
          <mxGeometry x="552" y="-100" width="100" height="80" as="geometry" />
        </mxCell>
        <mxCell id="AnFC6immAzE9Fkh495sT-109" value="" style="endArrow=classic;html=1;fontSize=10;" parent="1" edge="1">
          <mxGeometry width="50" height="50" relative="1" as="geometry">
            <mxPoint x="510" y="-20" as="sourcePoint" />
            <mxPoint x="260" y="-20" as="targetPoint" />
          </mxGeometry>
        </mxCell>
        <mxCell id="AnFC6immAzE9Fkh495sT-112" value="返回操作结果" style="edgeLabel;html=1;align=center;verticalAlign=middle;resizable=0;points=[];fontSize=10;" parent="AnFC6immAzE9Fkh495sT-109" vertex="1" connectable="0">
          <mxGeometry x="-0.2331" y="1" relative="1" as="geometry">
            <mxPoint as="offset" />
          </mxGeometry>
        </mxCell>
        <mxCell id="AnFC6immAzE9Fkh495sT-110" value="" style="endArrow=classic;html=1;" parent="1" edge="1">
          <mxGeometry width="50" height="50" relative="1" as="geometry">
            <mxPoint x="260" as="sourcePoint" />
            <mxPoint x="260" y="50" as="targetPoint" />
            <Array as="points">
              <mxPoint x="280" />
              <mxPoint x="280" y="50" />
            </Array>
          </mxGeometry>
        </mxCell>
        <mxCell id="AnFC6immAzE9Fkh495sT-111" value="发放指定场景积分" style="shape=note;whiteSpace=wrap;html=1;backgroundOutline=1;darkOpacity=0.05;fontSize=10;align=left;" parent="1" vertex="1">
          <mxGeometry x="284" width="106" height="70" as="geometry" />
        </mxCell>
        <mxCell id="AnFC6immAzE9Fkh495sT-113" value="" style="endArrow=classic;html=1;fontSize=10;" parent="1" edge="1">
          <mxGeometry width="50" height="50" relative="1" as="geometry">
            <mxPoint x="260" y="80" as="sourcePoint" />
            <mxPoint x="60" y="80" as="targetPoint" />
            <Array as="points" />
          </mxGeometry>
        </mxCell>
        <mxCell id="AnFC6immAzE9Fkh495sT-114" value="积分兑换完成" style="edgeLabel;html=1;align=center;verticalAlign=middle;resizable=0;points=[];fontSize=10;" parent="AnFC6immAzE9Fkh495sT-113" vertex="1" connectable="0">
          <mxGeometry x="0.1571" y="-2" relative="1" as="geometry">
            <mxPoint as="offset" />
          </mxGeometry>
        </mxCell>
        <mxCell id="AnFC6immAzE9Fkh495sT-115" value="用户" style="shape=umlActor;verticalLabelPosition=bottom;verticalAlign=top;html=1;outlineConnect=0;align=left;" parent="1" vertex="1">
          <mxGeometry x="50" y="190" width="30" height="60" as="geometry" />
        </mxCell>
        <mxCell id="AnFC6immAzE9Fkh495sT-116" value="业务线金币系统" style="rounded=1;whiteSpace=wrap;html=1;fillColor=#f5f5f5;strokeColor=#666666;fontColor=#333333;glass=0;sketch=0;align=center;" parent="1" vertex="1">
          <mxGeometry x="210" y="200" width="120" height="40" as="geometry" />
        </mxCell>
        <mxCell id="AnFC6immAzE9Fkh495sT-117" value="&lt;span&gt;平台积分系统&lt;/span&gt;" style="rounded=1;whiteSpace=wrap;html=1;fillColor=#f5f5f5;strokeColor=#666666;fontColor=#333333;glass=0;sketch=0;align=center;" parent="1" vertex="1">
          <mxGeometry x="460" y="200" width="120" height="40" as="geometry" />
        </mxCell>
        <mxCell id="AnFC6immAzE9Fkh495sT-118" value="" style="endArrow=classic;html=1;" parent="1" source="AnFC6immAzE9Fkh495sT-115" edge="1">
          <mxGeometry width="50" height="50" relative="1" as="geometry">
            <mxPoint x="60" y="360" as="sourcePoint" />
            <mxPoint x="70" y="670" as="targetPoint" />
          </mxGeometry>
        </mxCell>
        <mxCell id="AnFC6immAzE9Fkh495sT-119" value="" style="endArrow=classic;html=1;" parent="1" edge="1">
          <mxGeometry width="50" height="50" relative="1" as="geometry">
            <mxPoint x="267.6633333333334" y="240" as="sourcePoint" />
            <mxPoint x="272.3299999999999" y="660" as="targetPoint" />
          </mxGeometry>
        </mxCell>
        <mxCell id="AnFC6immAzE9Fkh495sT-120" value="" style="endArrow=classic;html=1;" parent="1" edge="1">
          <mxGeometry width="50" height="50" relative="1" as="geometry">
            <mxPoint x="525.0033333333336" y="240" as="sourcePoint" />
            <mxPoint x="529.6700000000001" y="660" as="targetPoint" />
          </mxGeometry>
        </mxCell>
        <mxCell id="AnFC6immAzE9Fkh495sT-121" value="" style="endArrow=classic;html=1;" parent="1" edge="1">
          <mxGeometry width="50" height="50" relative="1" as="geometry">
            <mxPoint x="70" y="290" as="sourcePoint" />
            <mxPoint x="270" y="290" as="targetPoint" />
          </mxGeometry>
        </mxCell>
        <mxCell id="AnFC6immAzE9Fkh495sT-122" value="&lt;font style=&quot;font-size: 10px&quot;&gt;金币数&lt;/font&gt;" style="edgeLabel;html=1;align=center;verticalAlign=middle;resizable=0;points=[];" parent="AnFC6immAzE9Fkh495sT-121" vertex="1" connectable="0">
          <mxGeometry x="-0.21" y="4" relative="1" as="geometry">
            <mxPoint as="offset" />
          </mxGeometry>
        </mxCell>
        <mxCell id="AnFC6immAzE9Fkh495sT-123" value="" style="endArrow=classic;html=1;" parent="1" edge="1">
          <mxGeometry width="50" height="50" relative="1" as="geometry">
            <mxPoint x="270" y="300" as="sourcePoint" />
            <mxPoint x="270" y="350" as="targetPoint" />
            <Array as="points">
              <mxPoint x="290" y="300" />
              <mxPoint x="290" y="350" />
            </Array>
          </mxGeometry>
        </mxCell>
        <mxCell id="AnFC6immAzE9Fkh495sT-124" value="" style="endArrow=classic;html=1;fontSize=10;" parent="1" edge="1">
          <mxGeometry width="50" height="50" relative="1" as="geometry">
            <mxPoint x="270" y="410" as="sourcePoint" />
            <mxPoint x="530" y="410" as="targetPoint" />
          </mxGeometry>
        </mxCell>
        <mxCell id="AnFC6immAzE9Fkh495sT-125" value="通知兑换平台积分&lt;br&gt;tal_id、num(金币)、scene_id" style="edgeLabel;html=1;align=center;verticalAlign=middle;resizable=0;points=[];fontSize=10;" parent="AnFC6immAzE9Fkh495sT-124" vertex="1" connectable="0">
          <mxGeometry x="-0.0341" y="1" relative="1" as="geometry">
            <mxPoint as="offset" />
          </mxGeometry>
        </mxCell>
        <mxCell id="AnFC6immAzE9Fkh495sT-126" value="逻辑判断是否可扣除" style="shape=note;whiteSpace=wrap;html=1;backgroundOutline=1;darkOpacity=0.05;fontSize=10;align=center;" parent="1" vertex="1">
          <mxGeometry x="294" y="280" width="100" height="80" as="geometry" />
        </mxCell>
        <mxCell id="AnFC6immAzE9Fkh495sT-127" value="" style="endArrow=classic;html=1;fontSize=10;" parent="1" edge="1">
          <mxGeometry width="50" height="50" relative="1" as="geometry">
            <mxPoint x="529" y="420" as="sourcePoint" />
            <mxPoint x="529" y="480" as="targetPoint" />
            <Array as="points">
              <mxPoint x="559" y="420" />
              <mxPoint x="559" y="480" />
            </Array>
          </mxGeometry>
        </mxCell>
        <mxCell id="AnFC6immAzE9Fkh495sT-128" value="平台为用户发放指定场景积分" style="shape=note;whiteSpace=wrap;html=1;backgroundOutline=1;darkOpacity=0.05;fontSize=10;align=center;" parent="1" vertex="1">
          <mxGeometry x="562" y="410" width="100" height="80" as="geometry" />
        </mxCell>
        <mxCell id="AnFC6immAzE9Fkh495sT-129" value="" style="endArrow=classic;html=1;fontSize=10;" parent="1" edge="1">
          <mxGeometry width="50" height="50" relative="1" as="geometry">
            <mxPoint x="520" y="490" as="sourcePoint" />
            <mxPoint x="270" y="490" as="targetPoint" />
          </mxGeometry>
        </mxCell>
        <mxCell id="AnFC6immAzE9Fkh495sT-130" value="返回操作结果" style="edgeLabel;html=1;align=center;verticalAlign=middle;resizable=0;points=[];fontSize=10;" parent="AnFC6immAzE9Fkh495sT-129" vertex="1" connectable="0">
          <mxGeometry x="-0.2331" y="1" relative="1" as="geometry">
            <mxPoint as="offset" />
          </mxGeometry>
        </mxCell>
        <mxCell id="AnFC6immAzE9Fkh495sT-131" value="" style="endArrow=classic;html=1;" parent="1" edge="1">
          <mxGeometry width="50" height="50" relative="1" as="geometry">
            <mxPoint x="270" y="510" as="sourcePoint" />
            <mxPoint x="270" y="560" as="targetPoint" />
            <Array as="points">
              <mxPoint x="290" y="510" />
              <mxPoint x="290" y="560" />
            </Array>
          </mxGeometry>
        </mxCell>
        <mxCell id="AnFC6immAzE9Fkh495sT-132" value="扣除用户对应金币" style="shape=note;whiteSpace=wrap;html=1;backgroundOutline=1;darkOpacity=0.05;fontSize=10;align=left;" parent="1" vertex="1">
          <mxGeometry x="294" y="510" width="106" height="70" as="geometry" />
        </mxCell>
        <mxCell id="AnFC6immAzE9Fkh495sT-133" value="" style="endArrow=classic;html=1;fontSize=10;" parent="1" edge="1">
          <mxGeometry width="50" height="50" relative="1" as="geometry">
            <mxPoint x="270" y="590" as="sourcePoint" />
            <mxPoint x="70" y="590" as="targetPoint" />
            <Array as="points" />
          </mxGeometry>
        </mxCell>
        <mxCell id="AnFC6immAzE9Fkh495sT-134" value="兑换完成" style="edgeLabel;html=1;align=center;verticalAlign=middle;resizable=0;points=[];fontSize=10;" parent="AnFC6immAzE9Fkh495sT-133" vertex="1" connectable="0">
          <mxGeometry x="0.1571" y="-2" relative="1" as="geometry">
            <mxPoint as="offset" />
          </mxGeometry>
        </mxCell>
        <mxCell id="AnFC6immAzE9Fkh495sT-135" value="用户" style="shape=umlActor;verticalLabelPosition=bottom;verticalAlign=top;html=1;outlineConnect=0;align=left;" parent="1" vertex="1">
          <mxGeometry x="50" y="720" width="30" height="60" as="geometry" />
        </mxCell>
        <mxCell id="AnFC6immAzE9Fkh495sT-136" value="业务线系统" style="rounded=1;whiteSpace=wrap;html=1;fillColor=#f5f5f5;strokeColor=#666666;fontColor=#333333;glass=0;sketch=0;align=center;" parent="1" vertex="1">
          <mxGeometry x="210" y="730" width="120" height="40" as="geometry" />
        </mxCell>
        <mxCell id="AnFC6immAzE9Fkh495sT-137" value="&lt;span&gt;平台积分系统&lt;/span&gt;" style="rounded=1;whiteSpace=wrap;html=1;fillColor=#f5f5f5;strokeColor=#666666;fontColor=#333333;glass=0;sketch=0;align=center;" parent="1" vertex="1">
          <mxGeometry x="460" y="730" width="120" height="40" as="geometry" />
        </mxCell>
        <mxCell id="AnFC6immAzE9Fkh495sT-138" value="" style="endArrow=classic;html=1;" parent="1" source="AnFC6immAzE9Fkh495sT-135" edge="1">
          <mxGeometry width="50" height="50" relative="1" as="geometry">
            <mxPoint x="60" y="890" as="sourcePoint" />
            <mxPoint x="70" y="1200" as="targetPoint" />
          </mxGeometry>
        </mxCell>
        <mxCell id="AnFC6immAzE9Fkh495sT-139" value="" style="endArrow=classic;html=1;" parent="1" edge="1">
          <mxGeometry width="50" height="50" relative="1" as="geometry">
            <mxPoint x="267.6633333333334" y="770" as="sourcePoint" />
            <mxPoint x="272.3299999999999" y="1190" as="targetPoint" />
          </mxGeometry>
        </mxCell>
        <mxCell id="AnFC6immAzE9Fkh495sT-140" value="" style="endArrow=classic;html=1;" parent="1" edge="1">
          <mxGeometry width="50" height="50" relative="1" as="geometry">
            <mxPoint x="525.0033333333336" y="770" as="sourcePoint" />
            <mxPoint x="529.6700000000001" y="1190" as="targetPoint" />
          </mxGeometry>
        </mxCell>
        <mxCell id="AnFC6immAzE9Fkh495sT-141" value="" style="endArrow=classic;html=1;" parent="1" edge="1">
          <mxGeometry width="50" height="50" relative="1" as="geometry">
            <mxPoint x="70" y="820" as="sourcePoint" />
            <mxPoint x="270" y="820" as="targetPoint" />
          </mxGeometry>
        </mxCell>
        <mxCell id="AnFC6immAzE9Fkh495sT-142" value="&lt;span style=&quot;font-size: 10px&quot;&gt;平台积分&lt;/span&gt;" style="edgeLabel;html=1;align=center;verticalAlign=middle;resizable=0;points=[];" parent="AnFC6immAzE9Fkh495sT-141" vertex="1" connectable="0">
          <mxGeometry x="-0.21" y="4" relative="1" as="geometry">
            <mxPoint as="offset" />
          </mxGeometry>
        </mxCell>
        <mxCell id="AnFC6immAzE9Fkh495sT-143" value="" style="endArrow=classic;html=1;" parent="1" edge="1">
          <mxGeometry width="50" height="50" relative="1" as="geometry">
            <mxPoint x="269" y="891" as="sourcePoint" />
            <mxPoint x="269" y="941" as="targetPoint" />
            <Array as="points">
              <mxPoint x="289" y="891" />
              <mxPoint x="289" y="941" />
            </Array>
          </mxGeometry>
        </mxCell>
        <mxCell id="AnFC6immAzE9Fkh495sT-144" value="" style="endArrow=classic;html=1;fontSize=10;" parent="1" edge="1">
          <mxGeometry width="50" height="50" relative="1" as="geometry">
            <mxPoint x="270" y="993" as="sourcePoint" />
            <mxPoint x="530" y="993" as="targetPoint" />
          </mxGeometry>
        </mxCell>
        <mxCell id="AnFC6immAzE9Fkh495sT-145" value="通知平台扣除&lt;br&gt;tal_id、num(积分)、scene_id、&lt;br&gt;order_id、shop_name" style="edgeLabel;html=1;align=center;verticalAlign=middle;resizable=0;points=[];fontSize=10;" parent="AnFC6immAzE9Fkh495sT-144" vertex="1" connectable="0">
          <mxGeometry x="-0.0341" y="1" relative="1" as="geometry">
            <mxPoint y="-10" as="offset" />
          </mxGeometry>
        </mxCell>
        <mxCell id="AnFC6immAzE9Fkh495sT-146" value="&lt;div style=&quot;text-align: left&quot;&gt;&lt;span&gt;平台积分兑换业务线&lt;/span&gt;&lt;span&gt;金币，业务线完成订单&lt;/span&gt;&lt;/div&gt;" style="shape=note;whiteSpace=wrap;html=1;backgroundOutline=1;darkOpacity=0.05;fontSize=10;align=center;" parent="1" vertex="1">
          <mxGeometry x="294" y="892" width="147" height="50" as="geometry" />
        </mxCell>
        <mxCell id="AnFC6immAzE9Fkh495sT-147" value="" style="endArrow=classic;html=1;fontSize=10;" parent="1" edge="1">
          <mxGeometry width="50" height="50" relative="1" as="geometry">
            <mxPoint x="529" y="994" as="sourcePoint" />
            <mxPoint x="529" y="1054" as="targetPoint" />
            <Array as="points">
              <mxPoint x="559" y="994" />
              <mxPoint x="559" y="1054" />
            </Array>
          </mxGeometry>
        </mxCell>
        <mxCell id="AnFC6immAzE9Fkh495sT-148" value="平台扣除指定场景积分，同时解除锁定积分" style="shape=note;whiteSpace=wrap;html=1;backgroundOutline=1;darkOpacity=0.05;fontSize=10;align=center;" parent="1" vertex="1">
          <mxGeometry x="562" y="984" width="100" height="80" as="geometry" />
        </mxCell>
        <mxCell id="AnFC6immAzE9Fkh495sT-149" value="" style="endArrow=classic;html=1;fontSize=10;" parent="1" edge="1">
          <mxGeometry width="50" height="50" relative="1" as="geometry">
            <mxPoint x="520" y="1064" as="sourcePoint" />
            <mxPoint x="270" y="1064" as="targetPoint" />
          </mxGeometry>
        </mxCell>
        <mxCell id="AnFC6immAzE9Fkh495sT-150" value="返回操作结果" style="edgeLabel;html=1;align=center;verticalAlign=middle;resizable=0;points=[];fontSize=10;" parent="AnFC6immAzE9Fkh495sT-149" vertex="1" connectable="0">
          <mxGeometry x="-0.2331" y="1" relative="1" as="geometry">
            <mxPoint as="offset" />
          </mxGeometry>
        </mxCell>
        <mxCell id="AnFC6immAzE9Fkh495sT-151" value="" style="endArrow=classic;html=1;" parent="1" edge="1">
          <mxGeometry width="50" height="50" relative="1" as="geometry">
            <mxPoint x="270" y="1081" as="sourcePoint" />
            <mxPoint x="270" y="1131" as="targetPoint" />
            <Array as="points">
              <mxPoint x="290" y="1081" />
              <mxPoint x="290" y="1131" />
            </Array>
          </mxGeometry>
        </mxCell>
        <mxCell id="AnFC6immAzE9Fkh495sT-152" value="完成后续操作" style="shape=note;whiteSpace=wrap;html=1;backgroundOutline=1;darkOpacity=0.05;fontSize=10;align=left;" parent="1" vertex="1">
          <mxGeometry x="294" y="1081" width="106" height="70" as="geometry" />
        </mxCell>
        <mxCell id="AnFC6immAzE9Fkh495sT-153" value="" style="endArrow=classic;html=1;fontSize=10;" parent="1" edge="1">
          <mxGeometry width="50" height="50" relative="1" as="geometry">
            <mxPoint x="270" y="1151" as="sourcePoint" />
            <mxPoint x="70" y="1151" as="targetPoint" />
            <Array as="points" />
          </mxGeometry>
        </mxCell>
        <mxCell id="AnFC6immAzE9Fkh495sT-154" value="完成购买" style="edgeLabel;html=1;align=center;verticalAlign=middle;resizable=0;points=[];fontSize=10;" parent="AnFC6immAzE9Fkh495sT-153" vertex="1" connectable="0">
          <mxGeometry x="0.1571" y="-2" relative="1" as="geometry">
            <mxPoint as="offset" />
          </mxGeometry>
        </mxCell>
        <mxCell id="AnFC6immAzE9Fkh495sT-155" value="" style="endArrow=classic;html=1;fontSize=10;" parent="1" edge="1">
          <mxGeometry width="50" height="50" relative="1" as="geometry">
            <mxPoint x="270" y="840" as="sourcePoint" />
            <mxPoint x="520" y="840" as="targetPoint" />
          </mxGeometry>
        </mxCell>
        <mxCell id="AnFC6immAzE9Fkh495sT-156" value="同时平台锁定积分&lt;br&gt;tal_id/积分" style="edgeLabel;html=1;align=center;verticalAlign=middle;resizable=0;points=[];fontSize=10;" parent="AnFC6immAzE9Fkh495sT-155" vertex="1" connectable="0">
          <mxGeometry x="0.1107" y="-2" relative="1" as="geometry">
            <mxPoint as="offset" />
          </mxGeometry>
        </mxCell>
        <mxCell id="AnFC6immAzE9Fkh495sT-157" value="" style="endArrow=classic;html=1;fontSize=10;" parent="1" edge="1">
          <mxGeometry width="50" height="50" relative="1" as="geometry">
            <mxPoint x="520" y="870" as="sourcePoint" />
            <mxPoint x="270" y="870" as="targetPoint" />
          </mxGeometry>
        </mxCell>
        <mxCell id="AnFC6immAzE9Fkh495sT-158" value="返回操作结果" style="edgeLabel;html=1;align=center;verticalAlign=middle;resizable=0;points=[];fontSize=10;" parent="AnFC6immAzE9Fkh495sT-157" vertex="1" connectable="0">
          <mxGeometry x="-0.2331" y="1" relative="1" as="geometry">
            <mxPoint as="offset" />
          </mxGeometry>
        </mxCell>
        <mxCell id="AnFC6immAzE9Fkh495sT-159" value="" style="rounded=1;whiteSpace=wrap;html=1;fillColor=#f5f5f5;strokeColor=#666666;fontColor=#333333;glass=0;sketch=0;align=center;" parent="1" vertex="1">
          <mxGeometry x="4310" y="-1160" width="120" height="40" as="geometry" />
        </mxCell>
        <mxCell id="AnFC6immAzE9Fkh495sT-184" value="新旧积分兑换流程" style="rounded=1;whiteSpace=wrap;html=1;fillColor=#f5f5f5;strokeColor=#666666;fontColor=#333333;glass=0;sketch=0;align=center;arcSize=50;" parent="1" vertex="1">
          <mxGeometry x="720" y="-1081" width="680" height="41" as="geometry" />
        </mxCell>
        <mxCell id="AnFC6immAzE9Fkh495sT-400" value="" style="edgeStyle=orthogonalEdgeStyle;rounded=0;jumpSize=0;orthogonalLoop=1;jettySize=auto;html=1;fontSize=10;entryX=0.5;entryY=0;entryDx=0;entryDy=0;" parent="1" source="AnFC6immAzE9Fkh495sT-185" target="AnFC6immAzE9Fkh495sT-190" edge="1">
          <mxGeometry relative="1" as="geometry" />
        </mxCell>
        <mxCell id="AnFC6immAzE9Fkh495sT-185" value="平台兑换积分流程&lt;br&gt;talid，cg, 积分数" style="rounded=1;whiteSpace=wrap;html=1;fillColor=#f5f5f5;strokeColor=#666666;fontColor=#333333;glass=0;sketch=0;align=center;" parent="1" vertex="1">
          <mxGeometry x="845" y="-960" width="120" height="40" as="geometry" />
        </mxCell>
        <mxCell id="AnFC6immAzE9Fkh495sT-210" value="" style="edgeStyle=orthogonalEdgeStyle;rounded=0;jumpSize=0;orthogonalLoop=1;jettySize=auto;html=1;fontSize=10;" parent="1" source="AnFC6immAzE9Fkh495sT-186" target="AnFC6immAzE9Fkh495sT-209" edge="1">
          <mxGeometry relative="1" as="geometry" />
        </mxCell>
        <mxCell id="AnFC6immAzE9Fkh495sT-186" value="兑换cg对应金币数" style="rounded=1;whiteSpace=wrap;html=1;fillColor=#f5f5f5;strokeColor=#666666;fontColor=#333333;glass=0;sketch=0;align=center;" parent="1" vertex="1">
          <mxGeometry x="845" y="-710" width="120" height="40" as="geometry" />
        </mxCell>
        <mxCell id="AnFC6immAzE9Fkh495sT-199" value="" style="edgeStyle=orthogonalEdgeStyle;rounded=0;jumpSize=0;orthogonalLoop=1;jettySize=auto;html=1;fontSize=10;" parent="1" source="AnFC6immAzE9Fkh495sT-188" target="AnFC6immAzE9Fkh495sT-186" edge="1">
          <mxGeometry relative="1" as="geometry" />
        </mxCell>
        <mxCell id="AnFC6immAzE9Fkh495sT-188" value="兑换比率&lt;br&gt;(配置文件)&amp;nbsp; &amp;nbsp;" style="strokeWidth=2;html=1;shape=mxgraph.flowchart.direct_data;whiteSpace=wrap;fontSize=10;align=center;" parent="1" vertex="1">
          <mxGeometry x="1040" y="-710" width="79.5" height="40" as="geometry" />
        </mxCell>
        <mxCell id="AnFC6immAzE9Fkh495sT-208" value="" style="edgeStyle=orthogonalEdgeStyle;rounded=0;jumpSize=0;orthogonalLoop=1;jettySize=auto;html=1;fontSize=10;entryX=0.5;entryY=0;entryDx=0;entryDy=0;" parent="1" source="AnFC6immAzE9Fkh495sT-190" target="AnFC6immAzE9Fkh495sT-211" edge="1">
          <mxGeometry relative="1" as="geometry">
            <mxPoint x="906" y="-823" as="targetPoint" />
          </mxGeometry>
        </mxCell>
        <mxCell id="AnFC6immAzE9Fkh495sT-190" value="talid转换talo" style="rounded=1;whiteSpace=wrap;html=1;fillColor=#f5f5f5;strokeColor=#666666;fontColor=#333333;glass=0;sketch=0;align=center;" parent="1" vertex="1">
          <mxGeometry x="845" y="-882" width="120" height="40" as="geometry" />
        </mxCell>
        <mxCell id="AnFC6immAzE9Fkh495sT-203" value="" style="edgeStyle=orthogonalEdgeStyle;rounded=0;jumpSize=0;orthogonalLoop=1;jettySize=auto;html=1;fontSize=10;exitX=0;exitY=0.5;exitDx=0;exitDy=0;" parent="1" source="AnFC6immAzE9Fkh495sT-204" target="AnFC6immAzE9Fkh495sT-190" edge="1">
          <mxGeometry relative="1" as="geometry">
            <mxPoint x="1006" y="-863" as="sourcePoint" />
          </mxGeometry>
        </mxCell>
        <mxCell id="AnFC6immAzE9Fkh495sT-205" value="cg+talid" style="edgeLabel;html=1;align=center;verticalAlign=middle;resizable=0;points=[];fontSize=10;" parent="AnFC6immAzE9Fkh495sT-203" vertex="1" connectable="0">
          <mxGeometry x="-0.13" y="-2" relative="1" as="geometry">
            <mxPoint as="offset" />
          </mxGeometry>
        </mxCell>
        <mxCell id="AnFC6immAzE9Fkh495sT-191" value="cache&lt;br&gt;(tw/redis)" style="strokeWidth=2;html=1;shape=mxgraph.flowchart.direct_data;whiteSpace=wrap;fontSize=10;align=center;" parent="1" vertex="1">
          <mxGeometry x="1071" y="-893" width="79.5" height="40" as="geometry" />
        </mxCell>
        <mxCell id="AnFC6immAzE9Fkh495sT-200" value="" style="edgeStyle=orthogonalEdgeStyle;rounded=0;jumpSize=0;orthogonalLoop=1;jettySize=auto;html=1;fontSize=10;entryX=1;entryY=0.5;entryDx=0;entryDy=0;entryPerimeter=0;" parent="1" source="AnFC6immAzE9Fkh495sT-193" target="AnFC6immAzE9Fkh495sT-191" edge="1">
          <mxGeometry relative="1" as="geometry">
            <mxPoint x="1201" y="-873" as="targetPoint" />
          </mxGeometry>
        </mxCell>
        <mxCell id="AnFC6immAzE9Fkh495sT-201" value="加载缓存" style="edgeLabel;html=1;align=center;verticalAlign=middle;resizable=0;points=[];fontSize=10;" parent="AnFC6immAzE9Fkh495sT-200" vertex="1" connectable="0">
          <mxGeometry x="-0.036" y="1" relative="1" as="geometry">
            <mxPoint as="offset" />
          </mxGeometry>
        </mxCell>
        <mxCell id="AnFC6immAzE9Fkh495sT-193" value="api-user&lt;br&gt;[cg、talid]" style="rounded=1;whiteSpace=wrap;html=1;fillColor=#f5f5f5;strokeColor=#666666;fontColor=#333333;glass=0;sketch=0;align=center;" parent="1" vertex="1">
          <mxGeometry x="1241" y="-893" width="120" height="40" as="geometry" />
        </mxCell>
        <mxCell id="AnFC6immAzE9Fkh495sT-197" value="uc_point_talo_[cg]_[talid] =&amp;gt; talo&lt;br&gt;过期时间：1天" style="text;html=1;align=left;verticalAlign=middle;resizable=0;points=[];autosize=1;fontSize=10;" parent="1" vertex="1">
          <mxGeometry x="1041" y="-850" width="190" height="30" as="geometry" />
        </mxCell>
        <mxCell id="AnFC6immAzE9Fkh495sT-217" value="" style="edgeStyle=orthogonalEdgeStyle;rounded=0;jumpSize=0;orthogonalLoop=1;jettySize=auto;html=1;fontSize=10;" parent="1" source="AnFC6immAzE9Fkh495sT-209" target="AnFC6immAzE9Fkh495sT-216" edge="1">
          <mxGeometry relative="1" as="geometry" />
        </mxCell>
        <mxCell id="AnFC6immAzE9Fkh495sT-209" value="发起业务线扣除对应金币请求" style="rounded=1;whiteSpace=wrap;html=1;fillColor=#f5f5f5;strokeColor=#666666;fontColor=#333333;glass=0;sketch=0;align=center;" parent="1" vertex="1">
          <mxGeometry x="845" y="-640" width="120" height="40" as="geometry" />
        </mxCell>
        <mxCell id="AnFC6immAzE9Fkh495sT-214" value="" style="edgeStyle=orthogonalEdgeStyle;rounded=0;jumpSize=0;orthogonalLoop=1;jettySize=auto;html=1;fontSize=10;" parent="1" source="AnFC6immAzE9Fkh495sT-211" target="AnFC6immAzE9Fkh495sT-186" edge="1">
          <mxGeometry relative="1" as="geometry" />
        </mxCell>
        <mxCell id="AnFC6immAzE9Fkh495sT-462" style="edgeStyle=orthogonalEdgeStyle;rounded=0;jumpSize=0;orthogonalLoop=1;jettySize=auto;html=1;fontSize=10;entryX=0;entryY=0.5;entryDx=0;entryDy=0;" parent="1" source="AnFC6immAzE9Fkh495sT-211" target="AnFC6immAzE9Fkh495sT-219" edge="1">
          <mxGeometry relative="1" as="geometry">
            <mxPoint x="800" y="-340" as="targetPoint" />
            <Array as="points">
              <mxPoint x="750" y="-770" />
              <mxPoint x="750" y="-310" />
            </Array>
          </mxGeometry>
        </mxCell>
        <mxCell id="AnFC6immAzE9Fkh495sT-211" value="转换成功" style="rhombus;whiteSpace=wrap;html=1;fontSize=10;align=center;" parent="1" vertex="1">
          <mxGeometry x="860" y="-800" width="90" height="60" as="geometry" />
        </mxCell>
        <mxCell id="AnFC6immAzE9Fkh495sT-230" value="" style="edgeStyle=orthogonalEdgeStyle;rounded=0;jumpSize=0;orthogonalLoop=1;jettySize=auto;html=1;fontSize=10;entryX=0;entryY=0.5;entryDx=0;entryDy=0;" parent="1" source="AnFC6immAzE9Fkh495sT-215" target="AnFC6immAzE9Fkh495sT-221" edge="1">
          <mxGeometry relative="1" as="geometry">
            <mxPoint x="1025" y="-457" as="targetPoint" />
          </mxGeometry>
        </mxCell>
        <mxCell id="AnFC6immAzE9Fkh495sT-231" value="" style="edgeStyle=orthogonalEdgeStyle;rounded=0;jumpSize=0;orthogonalLoop=1;jettySize=auto;html=1;fontSize=10;" parent="1" source="AnFC6immAzE9Fkh495sT-215" target="AnFC6immAzE9Fkh495sT-219" edge="1">
          <mxGeometry relative="1" as="geometry" />
        </mxCell>
        <mxCell id="AnFC6immAzE9Fkh495sT-215" value="增加积分总数" style="rounded=1;whiteSpace=wrap;html=1;fillColor=#f5f5f5;strokeColor=#666666;fontColor=#333333;glass=0;sketch=0;align=center;" parent="1" vertex="1">
          <mxGeometry x="845" y="-470" width="120" height="40" as="geometry" />
        </mxCell>
        <mxCell id="AnFC6immAzE9Fkh495sT-218" value="" style="edgeStyle=orthogonalEdgeStyle;rounded=0;jumpSize=0;orthogonalLoop=1;jettySize=auto;html=1;fontSize=10;" parent="1" source="AnFC6immAzE9Fkh495sT-216" target="AnFC6immAzE9Fkh495sT-215" edge="1">
          <mxGeometry relative="1" as="geometry" />
        </mxCell>
        <mxCell id="AnFC6immAzE9Fkh495sT-463" style="edgeStyle=orthogonalEdgeStyle;rounded=0;jumpSize=0;orthogonalLoop=1;jettySize=auto;html=1;fontSize=10;entryX=0;entryY=0.5;entryDx=0;entryDy=0;" parent="1" source="AnFC6immAzE9Fkh495sT-216" target="AnFC6immAzE9Fkh495sT-219" edge="1">
          <mxGeometry relative="1" as="geometry">
            <mxPoint x="840" y="-370" as="targetPoint" />
            <Array as="points">
              <mxPoint x="750" y="-535" />
              <mxPoint x="750" y="-310" />
            </Array>
          </mxGeometry>
        </mxCell>
        <mxCell id="AnFC6immAzE9Fkh495sT-216" value="业务线扣除&lt;br&gt;成功" style="rhombus;whiteSpace=wrap;html=1;fontSize=10;align=center;" parent="1" vertex="1">
          <mxGeometry x="860" y="-564.5" width="90" height="60" as="geometry" />
        </mxCell>
        <mxCell id="AnFC6immAzE9Fkh495sT-219" value="完毕" style="rounded=1;whiteSpace=wrap;html=1;fillColor=#f5f5f5;strokeColor=#666666;fontColor=#333333;glass=0;sketch=0;align=center;" parent="1" vertex="1">
          <mxGeometry x="845" y="-336.59" width="120" height="40" as="geometry" />
        </mxCell>
        <mxCell id="AnFC6immAzE9Fkh495sT-221" value="" style="rounded=0;whiteSpace=wrap;html=1;fontSize=10;align=center;dashed=1;" parent="1" vertex="1">
          <mxGeometry x="1040" y="-603.41" width="445" height="306.82" as="geometry" />
        </mxCell>
        <mxCell id="AnFC6immAzE9Fkh495sT-222" value="cache&lt;br&gt;(tw/redis)" style="strokeWidth=2;html=1;shape=mxgraph.flowchart.direct_data;whiteSpace=wrap;fontSize=10;align=center;fillColor=#A9C4EB;" parent="1" vertex="1">
          <mxGeometry x="1068" y="-547.4699999999999" width="79.5" height="40" as="geometry" />
        </mxCell>
        <mxCell id="AnFC6immAzE9Fkh495sT-226" value="key:uc_point_balance_[talo]&lt;br&gt;value:total&lt;br&gt;过期时间:7天" style="text;html=1;align=left;verticalAlign=middle;resizable=0;points=[];autosize=1;fontSize=10;" parent="1" vertex="1">
          <mxGeometry x="1053" y="-500.72" width="160" height="40" as="geometry" />
        </mxCell>
        <mxCell id="AnFC6immAzE9Fkh495sT-229" value="" style="edgeStyle=orthogonalEdgeStyle;rounded=0;jumpSize=0;orthogonalLoop=1;jettySize=auto;html=1;fontSize=10;entryX=1;entryY=0.5;entryDx=0;entryDy=0;entryPerimeter=0;" parent="1" source="AnFC6immAzE9Fkh495sT-227" target="AnFC6immAzE9Fkh495sT-222" edge="1">
          <mxGeometry relative="1" as="geometry">
            <Array as="points">
              <mxPoint x="1215" y="-560.5899999999999" />
              <mxPoint x="1215" y="-527.5899999999999" />
            </Array>
          </mxGeometry>
        </mxCell>
        <mxCell id="AnFC6immAzE9Fkh495sT-248" value="&lt;div style=&quot;text-align: left&quot;&gt;&lt;br&gt;&lt;/div&gt;" style="edgeLabel;html=1;align=center;verticalAlign=middle;resizable=0;points=[];fontSize=10;" parent="AnFC6immAzE9Fkh495sT-229" vertex="1" connectable="0">
          <mxGeometry x="-0.6386" y="-3" relative="1" as="geometry">
            <mxPoint as="offset" />
          </mxGeometry>
        </mxCell>
        <mxCell id="AnFC6immAzE9Fkh495sT-227" value="&lt;br&gt;月收入统计表余额" style="strokeWidth=2;html=1;shape=mxgraph.flowchart.database;whiteSpace=wrap;fontSize=10;align=center;" parent="1" vertex="1">
          <mxGeometry x="1274" y="-585.4699999999999" width="60" height="60" as="geometry" />
        </mxCell>
        <mxCell id="AnFC6immAzE9Fkh495sT-396" style="edgeStyle=orthogonalEdgeStyle;rounded=0;jumpSize=0;orthogonalLoop=1;jettySize=auto;html=1;exitX=0;exitY=0.5;exitDx=0;exitDy=0;exitPerimeter=0;entryX=1;entryY=0.5;entryDx=0;entryDy=0;entryPerimeter=0;fontSize=10;" parent="1" source="AnFC6immAzE9Fkh495sT-251" target="AnFC6immAzE9Fkh495sT-222" edge="1">
          <mxGeometry relative="1" as="geometry">
            <Array as="points">
              <mxPoint x="1215" y="-495.59000000000003" />
              <mxPoint x="1215" y="-527.5899999999999" />
            </Array>
          </mxGeometry>
        </mxCell>
        <mxCell id="AnFC6immAzE9Fkh495sT-251" value="cache&lt;br&gt;(tw/redis)" style="strokeWidth=2;html=1;shape=mxgraph.flowchart.direct_data;whiteSpace=wrap;fontSize=10;align=center;fillColor=#A9C4EB;" parent="1" vertex="1">
          <mxGeometry x="1264.25" y="-515.4699999999999" width="79.5" height="40" as="geometry" />
        </mxCell>
        <mxCell id="AnFC6immAzE9Fkh495sT-264" value="key:uc_point_day_balance_[day]_[talo] &lt;br&gt;value:total&lt;br&gt;过期时间:1天" style="text;html=1;align=left;verticalAlign=middle;resizable=0;points=[];autosize=1;fontSize=10;" parent="1" vertex="1">
          <mxGeometry x="1194" y="-475.47" width="220" height="40" as="geometry" />
        </mxCell>
        <mxCell id="AnFC6immAzE9Fkh495sT-295" style="edgeStyle=orthogonalEdgeStyle;rounded=0;jumpSize=0;orthogonalLoop=1;jettySize=auto;html=1;fontSize=10;" parent="1" source="AnFC6immAzE9Fkh495sT-292" target="AnFC6immAzE9Fkh495sT-294" edge="1">
          <mxGeometry relative="1" as="geometry" />
        </mxCell>
        <mxCell id="AnFC6immAzE9Fkh495sT-292" value="queue&lt;br&gt;(tw/redis)" style="strokeWidth=2;html=1;shape=mxgraph.flowchart.direct_data;whiteSpace=wrap;fontSize=10;align=center;fillColor=#A9C4EB;" parent="1" vertex="1">
          <mxGeometry x="1068" y="-406.59000000000003" width="79.5" height="40" as="geometry" />
        </mxCell>
        <mxCell id="AnFC6immAzE9Fkh495sT-293" value="&lt;br&gt;(根据talo取模，分2个)&lt;br&gt;key:uc_point_income_queue_flow_[no]&lt;br&gt;value:json&lt;br&gt;过期时间:永久" style="text;html=1;align=left;verticalAlign=middle;resizable=0;points=[];autosize=1;fontSize=10;" parent="1" vertex="1">
          <mxGeometry x="1053" y="-371.59000000000003" width="220" height="70" as="geometry" />
        </mxCell>
        <mxCell id="AnFC6immAzE9Fkh495sT-294" value="&lt;br&gt;流水日志" style="strokeWidth=2;html=1;shape=mxgraph.flowchart.database;whiteSpace=wrap;fontSize=10;align=center;" parent="1" vertex="1">
          <mxGeometry x="1229" y="-416.59000000000003" width="60" height="60" as="geometry" />
        </mxCell>
        <mxCell id="AnFC6immAzE9Fkh495sT-300" value="" style="rounded=0;whiteSpace=wrap;html=1;fontSize=10;align=center;dashed=1;" parent="1" vertex="1">
          <mxGeometry x="831.5" y="-190" width="321" height="280" as="geometry" />
        </mxCell>
        <mxCell id="AnFC6immAzE9Fkh495sT-301" value="cache&lt;br&gt;(tw/redis)" style="strokeWidth=2;html=1;shape=mxgraph.flowchart.direct_data;whiteSpace=wrap;fontSize=10;align=center;fillColor=#A9C4EB;" parent="1" vertex="1">
          <mxGeometry x="862.5" y="-165.5" width="79.5" height="40" as="geometry" />
        </mxCell>
        <mxCell id="AnFC6immAzE9Fkh495sT-302" value="key:uc_point_balance_[talo]&lt;br&gt;value:total&lt;br&gt;过期时间:7天" style="text;html=1;align=left;verticalAlign=middle;resizable=0;points=[];autosize=1;fontSize=10;" parent="1" vertex="1">
          <mxGeometry x="847.5" y="-118.75" width="160" height="40" as="geometry" />
        </mxCell>
        <mxCell id="AnFC6immAzE9Fkh495sT-317" style="edgeStyle=orthogonalEdgeStyle;rounded=0;jumpSize=0;orthogonalLoop=1;jettySize=auto;html=1;fontSize=10;entryX=0;entryY=0.5;entryDx=0;entryDy=0;entryPerimeter=0;" parent="1" source="AnFC6immAzE9Fkh495sT-318" target="AnFC6immAzE9Fkh495sT-320" edge="1">
          <mxGeometry relative="1" as="geometry" />
        </mxCell>
        <mxCell id="AnFC6immAzE9Fkh495sT-323" style="edgeStyle=orthogonalEdgeStyle;rounded=0;jumpSize=0;orthogonalLoop=1;jettySize=auto;html=1;exitX=1;exitY=0.5;exitDx=0;exitDy=0;exitPerimeter=0;entryX=0;entryY=0.5;entryDx=0;entryDy=0;entryPerimeter=0;fontSize=10;" parent="1" source="AnFC6immAzE9Fkh495sT-318" target="AnFC6immAzE9Fkh495sT-322" edge="1">
          <mxGeometry relative="1" as="geometry" />
        </mxCell>
        <mxCell id="AnFC6immAzE9Fkh495sT-318" value="queue&lt;br&gt;(tw/redis)" style="strokeWidth=2;html=1;shape=mxgraph.flowchart.direct_data;whiteSpace=wrap;fontSize=10;align=center;fillColor=#A9C4EB;" parent="1" vertex="1">
          <mxGeometry x="867.5" y="-25" width="79.5" height="40" as="geometry" />
        </mxCell>
        <mxCell id="AnFC6immAzE9Fkh495sT-319" value="&lt;br&gt;(根据talo取模，分20个)&lt;br&gt;key:uc_point_queue_flow_[no]&lt;br&gt;value:json&lt;br&gt;过期时间:永久" style="text;html=1;align=left;verticalAlign=middle;resizable=0;points=[];autosize=1;fontSize=10;" parent="1" vertex="1">
          <mxGeometry x="847.5" y="10" width="180" height="70" as="geometry" />
        </mxCell>
        <mxCell id="AnFC6immAzE9Fkh495sT-320" value="&lt;br&gt;流水日志" style="strokeWidth=2;html=1;shape=mxgraph.flowchart.database;whiteSpace=wrap;fontSize=10;align=center;" parent="1" vertex="1">
          <mxGeometry x="1083.5" y="10" width="60" height="60" as="geometry" />
        </mxCell>
        <mxCell id="AnFC6immAzE9Fkh495sT-325" style="edgeStyle=orthogonalEdgeStyle;rounded=0;jumpSize=0;orthogonalLoop=1;jettySize=auto;html=1;entryX=1;entryY=0.5;entryDx=0;entryDy=0;entryPerimeter=0;fontSize=10;exitX=0.5;exitY=0;exitDx=0;exitDy=0;exitPerimeter=0;" parent="1" source="AnFC6immAzE9Fkh495sT-322" target="AnFC6immAzE9Fkh495sT-301" edge="1">
          <mxGeometry relative="1" as="geometry">
            <mxPoint x="1109.5" y="-68.75" as="sourcePoint" />
          </mxGeometry>
        </mxCell>
        <mxCell id="AnFC6immAzE9Fkh495sT-322" value="&lt;br&gt;&lt;br&gt;账户总余额表/不分表" style="strokeWidth=2;html=1;shape=mxgraph.flowchart.database;whiteSpace=wrap;fontSize=10;align=center;" parent="1" vertex="1">
          <mxGeometry x="1082.5" y="-78.75" width="60" height="60" as="geometry" />
        </mxCell>
        <mxCell id="AnFC6immAzE9Fkh495sT-327" value="积分扣除" style="rounded=1;whiteSpace=wrap;html=1;fillColor=#f5f5f5;strokeColor=#666666;fontColor=#333333;glass=0;sketch=0;align=center;" parent="1" vertex="1">
          <mxGeometry x="1660" y="-1110" width="653" height="40" as="geometry" />
        </mxCell>
        <mxCell id="AnFC6immAzE9Fkh495sT-328" value="" style="edgeStyle=orthogonalEdgeStyle;rounded=0;orthogonalLoop=1;jettySize=auto;html=1;fontSize=10;" parent="1" source="AnFC6immAzE9Fkh495sT-330" target="AnFC6immAzE9Fkh495sT-331" edge="1">
          <mxGeometry relative="1" as="geometry" />
        </mxCell>
        <mxCell id="AnFC6immAzE9Fkh495sT-329" value="聚合" style="edgeLabel;html=1;align=center;verticalAlign=middle;resizable=0;points=[];fontSize=10;" parent="AnFC6immAzE9Fkh495sT-328" vertex="1" connectable="0">
          <mxGeometry x="-0.0836" y="2" relative="1" as="geometry">
            <mxPoint as="offset" />
          </mxGeometry>
        </mxCell>
        <mxCell id="AnFC6immAzE9Fkh495sT-330" value="日收入统计&lt;br&gt;(次日凌晨)" style="rounded=1;whiteSpace=wrap;html=1;fillColor=#f5f5f5;strokeColor=#666666;fontColor=#333333;glass=0;sketch=0;align=center;" parent="1" vertex="1">
          <mxGeometry x="430.5" y="1285" width="120" height="40" as="geometry" />
        </mxCell>
        <mxCell id="AnFC6immAzE9Fkh495sT-331" value="月收入统计&lt;br&gt;次月凌晨" style="rounded=1;whiteSpace=wrap;html=1;fillColor=#f5f5f5;strokeColor=#666666;fontColor=#333333;glass=0;sketch=0;align=center;" parent="1" vertex="1">
          <mxGeometry x="620" y="1285" width="120" height="40" as="geometry" />
        </mxCell>
        <mxCell id="AnFC6immAzE9Fkh495sT-332" value="聚合" style="edgeStyle=orthogonalEdgeStyle;rounded=0;jumpSize=0;orthogonalLoop=1;jettySize=auto;html=1;entryX=0;entryY=0.5;entryDx=0;entryDy=0;fontSize=10;" parent="1" source="AnFC6immAzE9Fkh495sT-333" target="AnFC6immAzE9Fkh495sT-330" edge="1">
          <mxGeometry relative="1" as="geometry" />
        </mxCell>
        <mxCell id="AnFC6immAzE9Fkh495sT-333" value="收入流水表" style="rounded=1;whiteSpace=wrap;html=1;fillColor=#f5f5f5;strokeColor=#666666;fontColor=#333333;glass=0;sketch=0;align=center;" parent="1" vertex="1">
          <mxGeometry x="240" y="1285" width="120" height="40" as="geometry" />
        </mxCell>
        <mxCell id="AnFC6immAzE9Fkh495sT-334" style="edgeStyle=orthogonalEdgeStyle;rounded=0;jumpSize=0;orthogonalLoop=1;jettySize=auto;html=1;entryX=0;entryY=0.5;entryDx=0;entryDy=0;fontSize=10;" parent="1" source="AnFC6immAzE9Fkh495sT-335" target="AnFC6immAzE9Fkh495sT-333" edge="1">
          <mxGeometry relative="1" as="geometry" />
        </mxCell>
        <mxCell id="AnFC6immAzE9Fkh495sT-335" value="兑换积分&lt;br&gt;答题/上课奖励&lt;br&gt;客服增加" style="rounded=1;whiteSpace=wrap;html=1;fillColor=#f5f5f5;strokeColor=#666666;fontColor=#333333;glass=0;sketch=0;align=center;" parent="1" vertex="1">
          <mxGeometry x="70" y="1280" width="130" height="50" as="geometry" />
        </mxCell>
        <mxCell id="AnFC6immAzE9Fkh495sT-347" value="" style="edgeStyle=orthogonalEdgeStyle;rounded=0;jumpSize=0;orthogonalLoop=1;jettySize=auto;html=1;fontSize=10;" parent="1" source="AnFC6immAzE9Fkh495sT-336" edge="1">
          <mxGeometry relative="1" as="geometry">
            <mxPoint x="1795" y="-922" as="targetPoint" />
          </mxGeometry>
        </mxCell>
        <mxCell id="AnFC6immAzE9Fkh495sT-336" value="业务线订单扣除&lt;br&gt;tal_id、scene_id、num、order_no、remark" style="rounded=1;whiteSpace=wrap;html=1;fillColor=#f5f5f5;strokeColor=#666666;fontColor=#333333;glass=0;sketch=0;align=center;" parent="1" vertex="1">
          <mxGeometry x="1660" y="-1040" width="270" height="40" as="geometry" />
        </mxCell>
        <mxCell id="AnFC6immAzE9Fkh495sT-337" value="" style="rounded=0;whiteSpace=wrap;html=1;fontSize=10;align=center;dashed=1;" parent="1" vertex="1">
          <mxGeometry x="2000" y="-1021" width="341" height="85" as="geometry" />
        </mxCell>
        <mxCell id="AnFC6immAzE9Fkh495sT-349" value="" style="edgeStyle=orthogonalEdgeStyle;rounded=0;jumpSize=0;orthogonalLoop=1;jettySize=auto;html=1;fontSize=10;entryX=0.5;entryY=0;entryDx=0;entryDy=0;exitX=0.5;exitY=1;exitDx=0;exitDy=0;" parent="1" source="AnFC6immAzE9Fkh495sT-358" target="AnFC6immAzE9Fkh495sT-382" edge="1">
          <mxGeometry relative="1" as="geometry">
            <mxPoint x="1794.5" y="-872" as="sourcePoint" />
            <mxPoint x="1795" y="-810" as="targetPoint" />
          </mxGeometry>
        </mxCell>
        <mxCell id="AnFC6immAzE9Fkh495sT-342" value="cache&lt;br&gt;(tw/redis)" style="strokeWidth=2;html=1;shape=mxgraph.flowchart.direct_data;whiteSpace=wrap;fontSize=10;align=center;" parent="1" vertex="1">
          <mxGeometry x="2045.5" y="-1009" width="79.5" height="40" as="geometry" />
        </mxCell>
        <mxCell id="AnFC6immAzE9Fkh495sT-343" value="" style="edgeStyle=orthogonalEdgeStyle;rounded=0;jumpSize=0;orthogonalLoop=1;jettySize=auto;html=1;fontSize=10;entryX=1;entryY=0.5;entryDx=0;entryDy=0;entryPerimeter=0;" parent="1" source="AnFC6immAzE9Fkh495sT-345" target="AnFC6immAzE9Fkh495sT-342" edge="1">
          <mxGeometry relative="1" as="geometry">
            <mxPoint x="2175.5" y="-989" as="targetPoint" />
          </mxGeometry>
        </mxCell>
        <mxCell id="AnFC6immAzE9Fkh495sT-344" value="加载缓存" style="edgeLabel;html=1;align=center;verticalAlign=middle;resizable=0;points=[];fontSize=10;" parent="AnFC6immAzE9Fkh495sT-343" vertex="1" connectable="0">
          <mxGeometry x="-0.036" y="1" relative="1" as="geometry">
            <mxPoint as="offset" />
          </mxGeometry>
        </mxCell>
        <mxCell id="AnFC6immAzE9Fkh495sT-345" value="api-user&lt;br&gt;[cg、talid]" style="rounded=1;whiteSpace=wrap;html=1;fillColor=#f5f5f5;strokeColor=#666666;fontColor=#333333;glass=0;sketch=0;align=center;" parent="1" vertex="1">
          <mxGeometry x="2215.5" y="-1009" width="120" height="40" as="geometry" />
        </mxCell>
        <mxCell id="AnFC6immAzE9Fkh495sT-346" value="uc_point_talo_[cg]_[talid] =&amp;gt; talo&lt;br&gt;过期时间：1天" style="text;html=1;align=left;verticalAlign=middle;resizable=0;points=[];autosize=1;fontSize=10;" parent="1" vertex="1">
          <mxGeometry x="2015.5" y="-966" width="190" height="30" as="geometry" />
        </mxCell>
        <mxCell id="AnFC6immAzE9Fkh495sT-350" value="cache&lt;br&gt;(tw/redis)" style="strokeWidth=2;html=1;shape=mxgraph.flowchart.direct_data;whiteSpace=wrap;fontSize=10;align=center;fillColor=#A9C4EB;" parent="1" vertex="1">
          <mxGeometry x="1910.5" y="-796.75" width="79.5" height="40" as="geometry" />
        </mxCell>
        <mxCell id="AnFC6immAzE9Fkh495sT-351" value="key:uc_point_balance_[talo]&lt;br&gt;value:total&lt;br&gt;过期时间:7天" style="text;html=1;align=left;verticalAlign=middle;resizable=0;points=[];autosize=1;fontSize=10;" parent="1" vertex="1">
          <mxGeometry x="1895.5" y="-750" width="160" height="40" as="geometry" />
        </mxCell>
        <mxCell id="AnFC6immAzE9Fkh495sT-355" value="secen_id &amp;gt; catalog &amp;gt;op_type&amp;nbsp;" style="rounded=1;whiteSpace=wrap;html=1;fillColor=#f5f5f5;strokeColor=#666666;fontColor=#333333;glass=0;sketch=0;align=center;arcSize=38;" parent="1" vertex="1">
          <mxGeometry x="1995.25" y="-924.12" width="180" height="44.25" as="geometry" />
        </mxCell>
        <mxCell id="AnFC6immAzE9Fkh495sT-358" value="talid转换对应talo" style="rounded=1;whiteSpace=wrap;html=1;fillColor=#f5f5f5;strokeColor=#666666;fontColor=#333333;glass=0;sketch=0;align=center;" parent="1" vertex="1">
          <mxGeometry x="1735" y="-922" width="120" height="40" as="geometry" />
        </mxCell>
        <mxCell id="AnFC6immAzE9Fkh495sT-360" value="talid下对应talo" style="rounded=1;whiteSpace=wrap;html=1;fillColor=#f5f5f5;strokeColor=#666666;fontColor=#333333;glass=0;sketch=0;align=center;" parent="1" vertex="1">
          <mxGeometry x="2008" y="-860" width="120" height="40" as="geometry" />
        </mxCell>
        <mxCell id="AnFC6immAzE9Fkh495sT-362" value="加载缓存" style="edgeStyle=orthogonalEdgeStyle;rounded=0;jumpSize=0;orthogonalLoop=1;jettySize=auto;html=1;fontSize=10;" parent="1" source="AnFC6immAzE9Fkh495sT-361" target="AnFC6immAzE9Fkh495sT-360" edge="1">
          <mxGeometry relative="1" as="geometry" />
        </mxCell>
        <mxCell id="AnFC6immAzE9Fkh495sT-361" value="api-user&lt;br&gt;talid" style="rounded=1;whiteSpace=wrap;html=1;fillColor=#f5f5f5;strokeColor=#666666;fontColor=#333333;glass=0;sketch=0;align=center;" parent="1" vertex="1">
          <mxGeometry x="2215.5" y="-860" width="120" height="40" as="geometry" />
        </mxCell>
        <mxCell id="AnFC6immAzE9Fkh495sT-367" style="edgeStyle=orthogonalEdgeStyle;rounded=0;jumpSize=0;orthogonalLoop=1;jettySize=auto;html=1;entryX=1;entryY=0.5;entryDx=0;entryDy=0;fontSize=10;" parent="1" source="AnFC6immAzE9Fkh495sT-365" target="AnFC6immAzE9Fkh495sT-358" edge="1">
          <mxGeometry relative="1" as="geometry" />
        </mxCell>
        <mxCell id="AnFC6immAzE9Fkh495sT-374" style="edgeStyle=orthogonalEdgeStyle;rounded=0;jumpSize=0;orthogonalLoop=1;jettySize=auto;html=1;entryX=0;entryY=0.5;entryDx=0;entryDy=0;fontSize=10;exitX=0.5;exitY=1;exitDx=0;exitDy=0;" parent="1" source="AnFC6immAzE9Fkh495sT-365" target="AnFC6immAzE9Fkh495sT-370" edge="1">
          <mxGeometry relative="1" as="geometry" />
        </mxCell>
        <mxCell id="AnFC6immAzE9Fkh495sT-375" value="是" style="edgeLabel;html=1;align=center;verticalAlign=middle;resizable=0;points=[];fontSize=10;" parent="AnFC6immAzE9Fkh495sT-374" vertex="1" connectable="0">
          <mxGeometry x="0.2672" relative="1" as="geometry">
            <mxPoint as="offset" />
          </mxGeometry>
        </mxCell>
        <mxCell id="AnFC6immAzE9Fkh495sT-376" style="edgeStyle=orthogonalEdgeStyle;rounded=0;jumpSize=0;orthogonalLoop=1;jettySize=auto;html=1;exitX=0.5;exitY=0;exitDx=0;exitDy=0;entryX=0;entryY=0.5;entryDx=0;entryDy=0;fontSize=10;" parent="1" source="AnFC6immAzE9Fkh495sT-365" target="AnFC6immAzE9Fkh495sT-337" edge="1">
          <mxGeometry relative="1" as="geometry" />
        </mxCell>
        <mxCell id="AnFC6immAzE9Fkh495sT-378" value="否" style="edgeLabel;html=1;align=center;verticalAlign=middle;resizable=0;points=[];fontSize=10;" parent="AnFC6immAzE9Fkh495sT-376" vertex="1" connectable="0">
          <mxGeometry x="0.0748" y="4" relative="1" as="geometry">
            <mxPoint x="9.86" y="1.53" as="offset" />
          </mxGeometry>
        </mxCell>
        <mxCell id="AnFC6immAzE9Fkh495sT-365" value="是否分摊" style="rhombus;whiteSpace=wrap;html=1;fontSize=10;align=center;" parent="1" vertex="1">
          <mxGeometry x="1900" y="-932" width="90" height="60" as="geometry" />
        </mxCell>
        <mxCell id="AnFC6immAzE9Fkh495sT-383" style="edgeStyle=orthogonalEdgeStyle;rounded=0;jumpSize=0;orthogonalLoop=1;jettySize=auto;html=1;entryX=0;entryY=0.5;entryDx=0;entryDy=0;entryPerimeter=0;fontSize=10;" parent="1" source="AnFC6immAzE9Fkh495sT-382" target="AnFC6immAzE9Fkh495sT-350" edge="1">
          <mxGeometry relative="1" as="geometry" />
        </mxCell>
        <mxCell id="AnFC6immAzE9Fkh495sT-385" value="" style="edgeStyle=orthogonalEdgeStyle;rounded=0;jumpSize=0;orthogonalLoop=1;jettySize=auto;html=1;fontSize=10;" parent="1" source="AnFC6immAzE9Fkh495sT-382" target="AnFC6immAzE9Fkh495sT-384" edge="1">
          <mxGeometry relative="1" as="geometry" />
        </mxCell>
        <mxCell id="AnFC6immAzE9Fkh495sT-382" value="获取对应talo余额" style="rounded=1;whiteSpace=wrap;html=1;fillColor=#f5f5f5;strokeColor=#666666;fontColor=#333333;glass=0;sketch=0;align=center;" parent="1" vertex="1">
          <mxGeometry x="1735" y="-797" width="120" height="40" as="geometry" />
        </mxCell>
        <mxCell id="AnFC6immAzE9Fkh495sT-388" value="是" style="edgeStyle=orthogonalEdgeStyle;rounded=0;jumpSize=0;orthogonalLoop=1;jettySize=auto;html=1;fontSize=10;entryX=0.5;entryY=0;entryDx=0;entryDy=0;" parent="1" source="AnFC6immAzE9Fkh495sT-384" target="AnFC6immAzE9Fkh495sT-536" edge="1">
          <mxGeometry relative="1" as="geometry">
            <mxPoint x="1795" y="-604.5" as="targetPoint" />
          </mxGeometry>
        </mxCell>
        <mxCell id="AnFC6immAzE9Fkh495sT-519" style="edgeStyle=orthogonalEdgeStyle;rounded=0;jumpSize=0;orthogonalLoop=1;jettySize=auto;html=1;fontSize=10;entryX=0;entryY=0.5;entryDx=0;entryDy=0;" parent="1" source="AnFC6immAzE9Fkh495sT-384" target="AnFC6immAzE9Fkh495sT-518" edge="1">
          <mxGeometry relative="1" as="geometry">
            <mxPoint x="1690" y="-360" as="targetPoint" />
            <Array as="points">
              <mxPoint x="1660" y="-680" />
              <mxPoint x="1660" y="-139" />
            </Array>
          </mxGeometry>
        </mxCell>
        <mxCell id="AnFC6immAzE9Fkh495sT-384" value="是否足够扣除" style="rhombus;whiteSpace=wrap;html=1;fontSize=10;align=center;" parent="1" vertex="1">
          <mxGeometry x="1750" y="-710" width="90" height="60" as="geometry" />
        </mxCell>
        <mxCell id="AnFC6immAzE9Fkh495sT-395" value="" style="edgeStyle=orthogonalEdgeStyle;rounded=0;jumpSize=0;orthogonalLoop=1;jettySize=auto;html=1;fontSize=10;entryX=1;entryY=0.5;entryDx=0;entryDy=0;entryPerimeter=0;" parent="1" source="AnFC6immAzE9Fkh495sT-390" target="AnFC6immAzE9Fkh495sT-251" edge="1">
          <mxGeometry relative="1" as="geometry" />
        </mxCell>
        <mxCell id="AnFC6immAzE9Fkh495sT-390" value="&lt;br&gt;收入流水-&lt;br&gt;分摊表" style="strokeWidth=2;html=1;shape=mxgraph.flowchart.database;whiteSpace=wrap;fontSize=10;align=center;" parent="1" vertex="1">
          <mxGeometry x="1414" y="-525.4699999999999" width="60" height="60" as="geometry" />
        </mxCell>
        <mxCell id="AnFC6immAzE9Fkh495sT-445" value="" style="group" parent="1" vertex="1" connectable="0">
          <mxGeometry x="850" y="230" width="445" height="260" as="geometry" />
        </mxCell>
        <mxCell id="AnFC6immAzE9Fkh495sT-422" value="&lt;span&gt;积分中心API&lt;/span&gt;" style="rounded=1;whiteSpace=wrap;html=1;fillColor=#f5f5f5;strokeColor=#666666;fontColor=#333333;glass=0;sketch=0;align=center;" parent="AnFC6immAzE9Fkh495sT-445" vertex="1">
          <mxGeometry x="3.5" y="80" width="440" height="40" as="geometry" />
        </mxCell>
        <mxCell id="AnFC6immAzE9Fkh495sT-424" value="积分商城" style="rounded=1;whiteSpace=wrap;html=1;fillColor=#f5f5f5;strokeColor=#666666;fontColor=#333333;glass=0;sketch=0;align=center;" parent="AnFC6immAzE9Fkh495sT-445" vertex="1">
          <mxGeometry x="3.5" y="30" width="120" height="40" as="geometry" />
        </mxCell>
        <mxCell id="AnFC6immAzE9Fkh495sT-425" value="&lt;span&gt;积分活动系统&lt;/span&gt;" style="rounded=1;whiteSpace=wrap;html=1;fillColor=#f5f5f5;strokeColor=#666666;fontColor=#333333;glass=0;sketch=0;align=center;" parent="AnFC6immAzE9Fkh495sT-445" vertex="1">
          <mxGeometry x="162.5" y="30" width="120" height="40" as="geometry" />
        </mxCell>
        <mxCell id="AnFC6immAzE9Fkh495sT-426" value="&lt;span&gt;业务线A&lt;/span&gt;" style="rounded=1;whiteSpace=wrap;html=1;fillColor=#f5f5f5;strokeColor=#666666;fontColor=#333333;glass=0;sketch=0;align=center;" parent="AnFC6immAzE9Fkh495sT-445" vertex="1">
          <mxGeometry x="322.5" y="30" width="120" height="40" as="geometry" />
        </mxCell>
        <mxCell id="AnFC6immAzE9Fkh495sT-432" value="积分收入" style="rounded=1;whiteSpace=wrap;html=1;fillColor=#f5f5f5;strokeColor=#666666;fontColor=#333333;glass=0;sketch=0;align=center;" parent="AnFC6immAzE9Fkh495sT-445" vertex="1">
          <mxGeometry x="1.5" y="130" width="120" height="40" as="geometry" />
        </mxCell>
        <mxCell id="AnFC6immAzE9Fkh495sT-433" value="积分支出" style="rounded=1;whiteSpace=wrap;html=1;fillColor=#f5f5f5;strokeColor=#666666;fontColor=#333333;glass=0;sketch=0;align=center;" parent="AnFC6immAzE9Fkh495sT-445" vertex="1">
          <mxGeometry x="163.5" y="130" width="120" height="40" as="geometry" />
        </mxCell>
        <mxCell id="AnFC6immAzE9Fkh495sT-434" value="积分分摊" style="rounded=1;whiteSpace=wrap;html=1;fillColor=#f5f5f5;strokeColor=#666666;fontColor=#333333;glass=0;sketch=0;align=center;" parent="AnFC6immAzE9Fkh495sT-445" vertex="1">
          <mxGeometry x="320.5" y="130" width="120" height="40" as="geometry" />
        </mxCell>
        <mxCell id="AnFC6immAzE9Fkh495sT-439" value="收发场景" style="rounded=1;whiteSpace=wrap;html=1;fillColor=#f5f5f5;strokeColor=#666666;fontColor=#333333;glass=0;sketch=0;align=center;" parent="AnFC6immAzE9Fkh495sT-445" vertex="1">
          <mxGeometry x="0.5" y="180" width="120" height="40" as="geometry" />
        </mxCell>
        <mxCell id="AnFC6immAzE9Fkh495sT-440" value="&amp;nbsp;业务线积分&lt;span style=&quot;color: rgba(0 , 0 , 0 , 0) ; font-family: monospace ; font-size: 0px&quot;&gt;%3CmxGraphModel%3E%3Croot%3E%3CmxCell%20id%3D%220%22%2F%3E%3CmxCell%20id%3D%221%22%20parent%3D%220%22%2F%3E%3CmxCell%20id%3D%222%22%20value%3D%22%E7%A7%AF%E5%88%86%E8%AE%A2%E5%8D%95%22%20style%3D%22rounded%3D1%3BwhiteSpace%3Dwrap%3Bhtml%3D1%3BfillColor%3D%23f5f5f5%3BstrokeColor%3D%23666666%3BfontColor%3D%23333333%3Bglass%3D0%3Bsketch%3D0%3Balign%3Dcenter%3B%22%20vertex%3D%221%22%20parent%3D%221%22%3E%3CmxGeometry%20x%3D%221226.5%22%20y%3D%22540%22%20width%3D%22120%22%20height%3D%2240%22%20as%3D%22geometry%22%2F%3E%3C%2FmxCell%3E%3C%2Froot%3E%3C%2FmxGraphModel%3E&lt;/span&gt;账单" style="rounded=1;whiteSpace=wrap;html=1;fillColor=#f5f5f5;strokeColor=#666666;fontColor=#333333;glass=0;sketch=0;align=center;" parent="AnFC6immAzE9Fkh495sT-445" vertex="1">
          <mxGeometry x="165.5" y="180" width="120" height="40" as="geometry" />
        </mxCell>
        <mxCell id="AnFC6immAzE9Fkh495sT-441" value="积分过期" style="rounded=1;whiteSpace=wrap;html=1;fillColor=#f5f5f5;strokeColor=#666666;fontColor=#333333;glass=0;sketch=0;align=center;" parent="AnFC6immAzE9Fkh495sT-445" vertex="1">
          <mxGeometry x="320.5" y="180" width="122" height="40" as="geometry" />
        </mxCell>
        <mxCell id="AnFC6immAzE9Fkh495sT-489" style="edgeStyle=orthogonalEdgeStyle;rounded=0;jumpSize=0;orthogonalLoop=1;jettySize=auto;html=1;entryX=0;entryY=0.5;entryDx=0;entryDy=0;entryPerimeter=0;fontSize=10;" parent="1" source="AnFC6immAzE9Fkh495sT-458" target="AnFC6immAzE9Fkh495sT-479" edge="1">
          <mxGeometry relative="1" as="geometry">
            <mxPoint x="1067.74" y="630" as="targetPoint" />
          </mxGeometry>
        </mxCell>
        <mxCell id="AnFC6immAzE9Fkh495sT-458" value="&lt;span&gt;业务线发放&lt;/span&gt;" style="rounded=1;whiteSpace=wrap;html=1;fillColor=#f5f5f5;strokeColor=#666666;fontColor=#333333;glass=0;sketch=0;align=center;" parent="1" vertex="1">
          <mxGeometry x="860" y="540" width="120" height="40" as="geometry" />
        </mxCell>
        <mxCell id="AnFC6immAzE9Fkh495sT-496" style="edgeStyle=orthogonalEdgeStyle;rounded=0;jumpSize=0;orthogonalLoop=1;jettySize=auto;html=1;entryX=0;entryY=0.5;entryDx=0;entryDy=0;entryPerimeter=0;fontSize=10;" parent="1" source="AnFC6immAzE9Fkh495sT-459" target="AnFC6immAzE9Fkh495sT-492" edge="1">
          <mxGeometry relative="1" as="geometry">
            <mxPoint x="1064" y="862" as="targetPoint" />
          </mxGeometry>
        </mxCell>
        <mxCell id="AnFC6immAzE9Fkh495sT-459" value="积分扣减" style="rounded=1;whiteSpace=wrap;html=1;fillColor=#f5f5f5;strokeColor=#666666;fontColor=#333333;glass=0;sketch=0;align=center;" parent="1" vertex="1">
          <mxGeometry x="860" y="760" width="120" height="40" as="geometry" />
        </mxCell>
        <mxCell id="AnFC6immAzE9Fkh495sT-482" value="" style="edgeStyle=orthogonalEdgeStyle;rounded=0;jumpSize=0;orthogonalLoop=1;jettySize=auto;html=1;fontSize=10;entryX=0;entryY=0.5;entryDx=0;entryDy=0;entryPerimeter=0;" parent="1" source="AnFC6immAzE9Fkh495sT-479" target="AnFC6immAzE9Fkh495sT-480" edge="1">
          <mxGeometry relative="1" as="geometry" />
        </mxCell>
        <mxCell id="AnFC6immAzE9Fkh495sT-479" value="&lt;br&gt;收入流水&lt;br&gt;(月分表)" style="strokeWidth=2;html=1;shape=mxgraph.flowchart.database;whiteSpace=wrap;fontSize=10;align=center;" parent="1" vertex="1">
          <mxGeometry x="1070.5" y="610" width="60" height="60" as="geometry" />
        </mxCell>
        <mxCell id="AnFC6immAzE9Fkh495sT-483" value="" style="edgeStyle=orthogonalEdgeStyle;rounded=0;jumpSize=0;orthogonalLoop=1;jettySize=auto;html=1;fontSize=10;" parent="1" source="AnFC6immAzE9Fkh495sT-480" target="AnFC6immAzE9Fkh495sT-481" edge="1">
          <mxGeometry relative="1" as="geometry" />
        </mxCell>
        <mxCell id="AnFC6immAzE9Fkh495sT-480" value="&lt;br&gt;日统计&lt;br&gt;(月分表)" style="strokeWidth=2;html=1;shape=mxgraph.flowchart.database;whiteSpace=wrap;fontSize=10;align=center;" parent="1" vertex="1">
          <mxGeometry x="1179.63" y="610" width="60" height="60" as="geometry" />
        </mxCell>
        <mxCell id="AnFC6immAzE9Fkh495sT-481" value="&lt;br&gt;月统计&lt;br&gt;(年分表)" style="strokeWidth=2;html=1;shape=mxgraph.flowchart.database;whiteSpace=wrap;fontSize=10;align=center;" parent="1" vertex="1">
          <mxGeometry x="1290.5" y="610" width="60" height="60" as="geometry" />
        </mxCell>
        <mxCell id="AnFC6immAzE9Fkh495sT-495" style="edgeStyle=orthogonalEdgeStyle;rounded=0;jumpSize=0;orthogonalLoop=1;jettySize=auto;html=1;entryX=0;entryY=0.5;entryDx=0;entryDy=0;entryPerimeter=0;fontSize=10;" parent="1" source="AnFC6immAzE9Fkh495sT-484" target="AnFC6immAzE9Fkh495sT-479" edge="1">
          <mxGeometry relative="1" as="geometry">
            <mxPoint x="1067.74" y="630" as="targetPoint" />
          </mxGeometry>
        </mxCell>
        <mxCell id="AnFC6immAzE9Fkh495sT-484" value="旧积分兑换" style="rounded=1;whiteSpace=wrap;html=1;fillColor=#f5f5f5;strokeColor=#666666;fontColor=#333333;glass=0;sketch=0;align=center;" parent="1" vertex="1">
          <mxGeometry x="860" y="590" width="120" height="40" as="geometry" />
        </mxCell>
        <mxCell id="AnFC6immAzE9Fkh495sT-494" style="edgeStyle=orthogonalEdgeStyle;rounded=0;jumpSize=0;orthogonalLoop=1;jettySize=auto;html=1;entryX=0;entryY=0.5;entryDx=0;entryDy=0;entryPerimeter=0;fontSize=10;" parent="1" source="AnFC6immAzE9Fkh495sT-485" target="AnFC6immAzE9Fkh495sT-479" edge="1">
          <mxGeometry relative="1" as="geometry">
            <mxPoint x="1067.74" y="630" as="targetPoint" />
          </mxGeometry>
        </mxCell>
        <mxCell id="AnFC6immAzE9Fkh495sT-485" value="游戏奖励" style="rounded=1;whiteSpace=wrap;html=1;fillColor=#f5f5f5;strokeColor=#666666;fontColor=#333333;glass=0;sketch=0;align=center;" parent="1" vertex="1">
          <mxGeometry x="860" y="640" width="120" height="40" as="geometry" />
        </mxCell>
        <mxCell id="AnFC6immAzE9Fkh495sT-491" style="edgeStyle=orthogonalEdgeStyle;rounded=0;jumpSize=0;orthogonalLoop=1;jettySize=auto;html=1;entryX=0;entryY=0.5;entryDx=0;entryDy=0;entryPerimeter=0;fontSize=10;" parent="1" source="AnFC6immAzE9Fkh495sT-490" target="AnFC6immAzE9Fkh495sT-479" edge="1">
          <mxGeometry relative="1" as="geometry">
            <mxPoint x="1067.74" y="630" as="targetPoint" />
          </mxGeometry>
        </mxCell>
        <mxCell id="AnFC6immAzE9Fkh495sT-490" value="。。。。" style="rounded=1;whiteSpace=wrap;html=1;fillColor=#f5f5f5;strokeColor=#666666;fontColor=#333333;glass=0;sketch=0;align=center;" parent="1" vertex="1">
          <mxGeometry x="860" y="690" width="120" height="40" as="geometry" />
        </mxCell>
        <mxCell id="AnFC6immAzE9Fkh495sT-503" value="" style="edgeStyle=orthogonalEdgeStyle;rounded=0;jumpSize=0;orthogonalLoop=1;jettySize=auto;html=1;fontSize=10;entryX=0;entryY=0.5;entryDx=0;entryDy=0;entryPerimeter=0;" parent="1" source="AnFC6immAzE9Fkh495sT-492" target="AnFC6immAzE9Fkh495sT-493" edge="1">
          <mxGeometry relative="1" as="geometry">
            <mxPoint x="1189" y="790" as="targetPoint" />
          </mxGeometry>
        </mxCell>
        <mxCell id="AnFC6immAzE9Fkh495sT-514" style="edgeStyle=orthogonalEdgeStyle;rounded=0;jumpSize=0;orthogonalLoop=1;jettySize=auto;html=1;entryX=0.5;entryY=0;entryDx=0;entryDy=0;fontSize=10;" parent="1" source="AnFC6immAzE9Fkh495sT-492" target="AnFC6immAzE9Fkh495sT-507" edge="1">
          <mxGeometry relative="1" as="geometry" />
        </mxCell>
        <mxCell id="AnFC6immAzE9Fkh495sT-492" value="&lt;br&gt;支出流水&lt;br&gt;(年分表)" style="strokeWidth=2;html=1;shape=mxgraph.flowchart.database;whiteSpace=wrap;fontSize=10;align=center;" parent="1" vertex="1">
          <mxGeometry x="1071" y="780" width="60" height="60" as="geometry" />
        </mxCell>
        <mxCell id="AnFC6immAzE9Fkh495sT-493" value="&lt;br&gt;月统计&lt;br&gt;(部分表)" style="strokeWidth=2;html=1;shape=mxgraph.flowchart.database;whiteSpace=wrap;fontSize=10;align=center;" parent="1" vertex="1">
          <mxGeometry x="1199.75" y="780" width="60" height="60" as="geometry" />
        </mxCell>
        <mxCell id="AnFC6immAzE9Fkh495sT-499" style="edgeStyle=orthogonalEdgeStyle;rounded=0;jumpSize=0;orthogonalLoop=1;jettySize=auto;html=1;entryX=0;entryY=0.5;entryDx=0;entryDy=0;entryPerimeter=0;fontSize=10;" parent="1" source="AnFC6immAzE9Fkh495sT-497" target="AnFC6immAzE9Fkh495sT-492" edge="1">
          <mxGeometry relative="1" as="geometry">
            <mxPoint x="1064" y="862" as="targetPoint" />
          </mxGeometry>
        </mxCell>
        <mxCell id="AnFC6immAzE9Fkh495sT-497" value="业务线订单扣减" style="rounded=1;whiteSpace=wrap;html=1;fillColor=#f5f5f5;strokeColor=#666666;fontColor=#333333;glass=0;sketch=0;align=center;" parent="1" vertex="1">
          <mxGeometry x="860" y="810" width="120" height="40" as="geometry" />
        </mxCell>
        <mxCell id="AnFC6immAzE9Fkh495sT-500" style="edgeStyle=orthogonalEdgeStyle;rounded=0;jumpSize=0;orthogonalLoop=1;jettySize=auto;html=1;fontSize=10;entryX=0;entryY=0.5;entryDx=0;entryDy=0;entryPerimeter=0;" parent="1" source="AnFC6immAzE9Fkh495sT-498" target="AnFC6immAzE9Fkh495sT-492" edge="1">
          <mxGeometry relative="1" as="geometry">
            <mxPoint x="1064" y="862" as="targetPoint" />
          </mxGeometry>
        </mxCell>
        <mxCell id="AnFC6immAzE9Fkh495sT-498" value="手动扣除" style="rounded=1;whiteSpace=wrap;html=1;fillColor=#f5f5f5;strokeColor=#666666;fontColor=#333333;glass=0;sketch=0;align=center;" parent="1" vertex="1">
          <mxGeometry x="860" y="864" width="120" height="40" as="geometry" />
        </mxCell>
        <mxCell id="AnFC6immAzE9Fkh495sT-513" style="edgeStyle=orthogonalEdgeStyle;rounded=0;jumpSize=0;orthogonalLoop=1;jettySize=auto;html=1;entryX=0;entryY=0.5;entryDx=0;entryDy=0;entryPerimeter=0;fontSize=10;" parent="1" source="AnFC6immAzE9Fkh495sT-501" target="AnFC6immAzE9Fkh495sT-492" edge="1">
          <mxGeometry relative="1" as="geometry" />
        </mxCell>
        <mxCell id="AnFC6immAzE9Fkh495sT-501" value="。。。。" style="rounded=1;whiteSpace=wrap;html=1;fillColor=#f5f5f5;strokeColor=#666666;fontColor=#333333;glass=0;sketch=0;align=center;" parent="1" vertex="1">
          <mxGeometry x="860" y="914" width="120" height="40" as="geometry" />
        </mxCell>
        <mxCell id="AnFC6immAzE9Fkh495sT-510" value="" style="edgeStyle=orthogonalEdgeStyle;rounded=0;jumpSize=0;orthogonalLoop=1;jettySize=auto;html=1;fontSize=10;entryX=0;entryY=0.5;entryDx=0;entryDy=0;entryPerimeter=0;" parent="1" source="AnFC6immAzE9Fkh495sT-507" target="AnFC6immAzE9Fkh495sT-511" edge="1">
          <mxGeometry relative="1" as="geometry" />
        </mxCell>
        <mxCell id="AnFC6immAzE9Fkh495sT-507" value="是否分摊" style="rhombus;whiteSpace=wrap;html=1;fontSize=10;align=center;" parent="1" vertex="1">
          <mxGeometry x="1056.0000000000002" y="872" width="90" height="60" as="geometry" />
        </mxCell>
        <mxCell id="AnFC6immAzE9Fkh495sT-509" value="&lt;br&gt;流水分摊" style="strokeWidth=2;html=1;shape=mxgraph.flowchart.database;whiteSpace=wrap;fontSize=10;align=center;" parent="1" vertex="1">
          <mxGeometry x="1276" y="872" width="60" height="60" as="geometry" />
        </mxCell>
        <mxCell id="AnFC6immAzE9Fkh495sT-512" value="" style="edgeStyle=orthogonalEdgeStyle;rounded=0;jumpSize=0;orthogonalLoop=1;jettySize=auto;html=1;fontSize=10;" parent="1" source="AnFC6immAzE9Fkh495sT-511" target="AnFC6immAzE9Fkh495sT-509" edge="1">
          <mxGeometry relative="1" as="geometry" />
        </mxCell>
        <mxCell id="AnFC6immAzE9Fkh495sT-511" value="&lt;br&gt;收入流水" style="strokeWidth=2;html=1;shape=mxgraph.flowchart.database;whiteSpace=wrap;fontSize=10;align=center;" parent="1" vertex="1">
          <mxGeometry x="1179.75" y="872" width="60" height="60" as="geometry" />
        </mxCell>
        <mxCell id="AnFC6immAzE9Fkh495sT-517" value="否" style="edgeStyle=orthogonalEdgeStyle;rounded=0;jumpSize=0;orthogonalLoop=1;jettySize=auto;html=1;fontSize=10;" parent="1" source="AnFC6immAzE9Fkh495sT-515" target="AnFC6immAzE9Fkh495sT-516" edge="1">
          <mxGeometry x="-0.7439" relative="1" as="geometry">
            <Array as="points">
              <mxPoint x="1795" y="-270" />
              <mxPoint x="1840" y="-270" />
            </Array>
            <mxPoint as="offset" />
          </mxGeometry>
        </mxCell>
        <mxCell id="AnFC6immAzE9Fkh495sT-522" style="edgeStyle=orthogonalEdgeStyle;rounded=0;jumpSize=0;orthogonalLoop=1;jettySize=auto;html=1;entryX=0;entryY=0.5;entryDx=0;entryDy=0;fontSize=10;" parent="1" source="AnFC6immAzE9Fkh495sT-515" target="AnFC6immAzE9Fkh495sT-521" edge="1">
          <mxGeometry relative="1" as="geometry" />
        </mxCell>
        <mxCell id="AnFC6immAzE9Fkh495sT-523" value="是" style="edgeLabel;html=1;align=center;verticalAlign=middle;resizable=0;points=[];fontSize=10;" parent="AnFC6immAzE9Fkh495sT-522" vertex="1" connectable="0">
          <mxGeometry x="-0.2451" y="2" relative="1" as="geometry">
            <mxPoint as="offset" />
          </mxGeometry>
        </mxCell>
        <mxCell id="AnFC6immAzE9Fkh495sT-515" value="是否分摊" style="rhombus;whiteSpace=wrap;html=1;fontSize=10;align=center;" parent="1" vertex="1">
          <mxGeometry x="1750" y="-539.2099999999999" width="90" height="60" as="geometry" />
        </mxCell>
        <mxCell id="AnFC6immAzE9Fkh495sT-542" value="" style="edgeStyle=orthogonalEdgeStyle;rounded=0;jumpSize=0;orthogonalLoop=1;jettySize=auto;html=1;fontSize=10;" parent="1" source="AnFC6immAzE9Fkh495sT-516" target="AnFC6immAzE9Fkh495sT-518" edge="1">
          <mxGeometry relative="1" as="geometry" />
        </mxCell>
        <mxCell id="AnFC6immAzE9Fkh495sT-516" value="扣除对应余额" style="rounded=1;whiteSpace=wrap;html=1;fillColor=#f5f5f5;strokeColor=#666666;fontColor=#333333;glass=0;sketch=0;align=center;" parent="1" vertex="1">
          <mxGeometry x="1780" y="-230" width="120" height="40" as="geometry" />
        </mxCell>
        <mxCell id="AnFC6immAzE9Fkh495sT-518" value="结束" style="rounded=1;whiteSpace=wrap;html=1;fillColor=#f5f5f5;strokeColor=#666666;fontColor=#333333;glass=0;sketch=0;align=center;" parent="1" vertex="1">
          <mxGeometry x="1780" y="-158.75000000000003" width="120" height="40" as="geometry" />
        </mxCell>
        <mxCell id="AnFC6immAzE9Fkh495sT-525" value="" style="edgeStyle=orthogonalEdgeStyle;rounded=0;jumpSize=0;orthogonalLoop=1;jettySize=auto;html=1;fontSize=10;" parent="1" source="AnFC6immAzE9Fkh495sT-521" target="AnFC6immAzE9Fkh495sT-524" edge="1">
          <mxGeometry relative="1" as="geometry" />
        </mxCell>
        <mxCell id="AnFC6immAzE9Fkh495sT-521" value="取即将待过期流水" style="rounded=1;whiteSpace=wrap;html=1;fillColor=#f5f5f5;strokeColor=#666666;fontColor=#333333;glass=0;sketch=0;align=center;" parent="1" vertex="1">
          <mxGeometry x="1921" y="-529.53" width="120" height="40" as="geometry" />
        </mxCell>
        <mxCell id="AnFC6immAzE9Fkh495sT-530" value="" style="edgeStyle=orthogonalEdgeStyle;rounded=0;jumpSize=0;orthogonalLoop=1;jettySize=auto;html=1;fontSize=10;exitX=0.5;exitY=1;exitDx=0;exitDy=0;" parent="1" source="AnFC6immAzE9Fkh495sT-524" target="AnFC6immAzE9Fkh495sT-529" edge="1">
          <mxGeometry relative="1" as="geometry">
            <mxPoint x="1981" y="-371.5899999999999" as="sourcePoint" />
          </mxGeometry>
        </mxCell>
        <mxCell id="AnFC6immAzE9Fkh495sT-539" value="是" style="edgeLabel;html=1;align=center;verticalAlign=middle;resizable=0;points=[];fontSize=10;" parent="AnFC6immAzE9Fkh495sT-530" vertex="1" connectable="0">
          <mxGeometry x="-0.6907" y="-1" relative="1" as="geometry">
            <mxPoint x="1" y="10.8" as="offset" />
          </mxGeometry>
        </mxCell>
        <mxCell id="AnFC6immAzE9Fkh495sT-532" value="否" style="edgeStyle=orthogonalEdgeStyle;rounded=0;jumpSize=0;orthogonalLoop=1;jettySize=auto;html=1;fontSize=10;" parent="1" source="AnFC6immAzE9Fkh495sT-524" target="AnFC6immAzE9Fkh495sT-531" edge="1">
          <mxGeometry relative="1" as="geometry" />
        </mxCell>
        <mxCell id="AnFC6immAzE9Fkh495sT-524" value="流水余额&lt;br&gt;大于扣除余额" style="rhombus;whiteSpace=wrap;html=1;fontSize=10;align=center;" parent="1" vertex="1">
          <mxGeometry x="1924.5" y="-462.47" width="113" height="70" as="geometry" />
        </mxCell>
        <mxCell id="AnFC6immAzE9Fkh495sT-535" value="" style="edgeStyle=orthogonalEdgeStyle;rounded=0;jumpSize=0;orthogonalLoop=1;jettySize=auto;html=1;fontSize=10;" parent="1" source="AnFC6immAzE9Fkh495sT-529" target="AnFC6immAzE9Fkh495sT-534" edge="1">
          <mxGeometry relative="1" as="geometry" />
        </mxCell>
        <mxCell id="AnFC6immAzE9Fkh495sT-529" value="批量扣除流水余额" style="rounded=1;whiteSpace=wrap;html=1;fillColor=#f5f5f5;strokeColor=#666666;fontColor=#333333;glass=0;sketch=0;align=center;" parent="1" vertex="1">
          <mxGeometry x="1921" y="-356.59" width="120" height="40" as="geometry" />
        </mxCell>
        <mxCell id="AnFC6immAzE9Fkh495sT-540" style="edgeStyle=orthogonalEdgeStyle;rounded=0;jumpSize=0;orthogonalLoop=1;jettySize=auto;html=1;fontSize=10;entryX=1;entryY=0.5;entryDx=0;entryDy=0;exitX=0.5;exitY=0;exitDx=0;exitDy=0;" parent="1" source="AnFC6immAzE9Fkh495sT-531" target="AnFC6immAzE9Fkh495sT-521" edge="1">
          <mxGeometry relative="1" as="geometry">
            <mxPoint x="2144" y="-530" as="targetPoint" />
            <Array as="points">
              <mxPoint x="2144" y="-510" />
            </Array>
          </mxGeometry>
        </mxCell>
        <mxCell id="AnFC6immAzE9Fkh495sT-531" value="扣除积分=&lt;br&gt;扣除积分-收入余额" style="rounded=1;whiteSpace=wrap;html=1;fillColor=#f5f5f5;strokeColor=#666666;fontColor=#333333;glass=0;sketch=0;align=center;" parent="1" vertex="1">
          <mxGeometry x="2084.25" y="-447.47" width="120" height="40" as="geometry" />
        </mxCell>
        <mxCell id="AnFC6immAzE9Fkh495sT-541" style="edgeStyle=orthogonalEdgeStyle;rounded=0;jumpSize=0;orthogonalLoop=1;jettySize=auto;html=1;entryX=0.5;entryY=0;entryDx=0;entryDy=0;fontSize=10;" parent="1" source="AnFC6immAzE9Fkh495sT-534" target="AnFC6immAzE9Fkh495sT-516" edge="1">
          <mxGeometry relative="1" as="geometry" />
        </mxCell>
        <mxCell id="AnFC6immAzE9Fkh495sT-534" value="以cg、month聚合&lt;br&gt;形成分摊记录" style="rounded=1;whiteSpace=wrap;html=1;fillColor=#f5f5f5;strokeColor=#666666;fontColor=#333333;glass=0;sketch=0;align=center;" parent="1" vertex="1">
          <mxGeometry x="1921" y="-289.99999999999994" width="120" height="40" as="geometry" />
        </mxCell>
        <mxCell id="AnFC6immAzE9Fkh495sT-537" value="" style="edgeStyle=orthogonalEdgeStyle;rounded=0;jumpSize=0;orthogonalLoop=1;jettySize=auto;html=1;fontSize=10;" parent="1" source="AnFC6immAzE9Fkh495sT-536" target="AnFC6immAzE9Fkh495sT-515" edge="1">
          <mxGeometry relative="1" as="geometry" />
        </mxCell>
        <mxCell id="AnFC6immAzE9Fkh495sT-536" value="生成支出流水" style="rounded=1;whiteSpace=wrap;html=1;fillColor=#f5f5f5;strokeColor=#666666;fontColor=#333333;glass=0;sketch=0;align=center;" parent="1" vertex="1">
          <mxGeometry x="1735" y="-604.5" width="120" height="40" as="geometry" />
        </mxCell>
        <mxCell id="AnFC6immAzE9Fkh495sT-543" value="收入过期积分&lt;br&gt;&lt;br&gt;超过过期时间且&lt;br&gt;收入流水余额大于0的" style="shape=card;whiteSpace=wrap;html=1;shadow=1;fillColor=#A9C4EB;fontSize=10;align=center;" parent="1" vertex="1">
          <mxGeometry x="2077" y="-396.59" width="134.5" height="95" as="geometry" />
        </mxCell>
        <mxCell id="AnFC6immAzE9Fkh495sT-544" value="uc_point_talo_[talo] =&amp;gt; [talo1,talo2..]&lt;br&gt;过期时间:30分钟" style="text;html=1;align=left;verticalAlign=middle;resizable=0;points=[];autosize=1;fontSize=10;" parent="1" vertex="1">
          <mxGeometry x="2025.5" y="-810" width="210" height="30" as="geometry" />
        </mxCell>
        <mxCell id="mCO8Nd5h7i90K2V3BXVZ-1" value="" style="edgeStyle=orthogonalEdgeStyle;rounded=0;orthogonalLoop=1;jettySize=auto;html=1;fontSize=10;" edge="1" parent="1" source="mCO8Nd5h7i90K2V3BXVZ-3" target="mCO8Nd5h7i90K2V3BXVZ-4">
          <mxGeometry relative="1" as="geometry" />
        </mxCell>
        <mxCell id="mCO8Nd5h7i90K2V3BXVZ-2" value="聚合" style="edgeLabel;html=1;align=center;verticalAlign=middle;resizable=0;points=[];fontSize=10;" vertex="1" connectable="0" parent="mCO8Nd5h7i90K2V3BXVZ-1">
          <mxGeometry x="-0.0836" y="2" relative="1" as="geometry">
            <mxPoint as="offset" />
          </mxGeometry>
        </mxCell>
        <mxCell id="mCO8Nd5h7i90K2V3BXVZ-3" value="日收入统计&lt;br&gt;(次日凌晨)" style="rounded=1;whiteSpace=wrap;html=1;fillColor=#f5f5f5;strokeColor=#666666;fontColor=#333333;glass=0;sketch=0;align=center;" vertex="1" parent="1">
          <mxGeometry x="2850.5" y="-1126" width="120" height="40" as="geometry" />
        </mxCell>
        <mxCell id="mCO8Nd5h7i90K2V3BXVZ-4" value="月收入统计&lt;br&gt;次月凌晨" style="rounded=1;whiteSpace=wrap;html=1;fillColor=#f5f5f5;strokeColor=#666666;fontColor=#333333;glass=0;sketch=0;align=center;" vertex="1" parent="1">
          <mxGeometry x="3040" y="-1126" width="120" height="40" as="geometry" />
        </mxCell>
        <mxCell id="mCO8Nd5h7i90K2V3BXVZ-5" value="聚合" style="edgeStyle=orthogonalEdgeStyle;rounded=0;jumpSize=0;orthogonalLoop=1;jettySize=auto;html=1;entryX=0;entryY=0.5;entryDx=0;entryDy=0;fontSize=10;" edge="1" parent="1" source="mCO8Nd5h7i90K2V3BXVZ-6" target="mCO8Nd5h7i90K2V3BXVZ-3">
          <mxGeometry relative="1" as="geometry" />
        </mxCell>
        <mxCell id="mCO8Nd5h7i90K2V3BXVZ-6" value="收入流水表" style="rounded=1;whiteSpace=wrap;html=1;fillColor=#f5f5f5;strokeColor=#666666;fontColor=#333333;glass=0;sketch=0;align=center;" vertex="1" parent="1">
          <mxGeometry x="2660" y="-1126" width="120" height="40" as="geometry" />
        </mxCell>
        <mxCell id="mCO8Nd5h7i90K2V3BXVZ-7" style="edgeStyle=orthogonalEdgeStyle;rounded=0;jumpSize=0;orthogonalLoop=1;jettySize=auto;html=1;entryX=0;entryY=0.5;entryDx=0;entryDy=0;fontSize=10;" edge="1" parent="1" source="mCO8Nd5h7i90K2V3BXVZ-8" target="mCO8Nd5h7i90K2V3BXVZ-6">
          <mxGeometry relative="1" as="geometry" />
        </mxCell>
        <mxCell id="mCO8Nd5h7i90K2V3BXVZ-8" value="兑换积分&lt;br&gt;答题/上课奖励&lt;br&gt;客服增加" style="rounded=1;whiteSpace=wrap;html=1;fillColor=#f5f5f5;strokeColor=#666666;fontColor=#333333;glass=0;sketch=0;align=center;" vertex="1" parent="1">
          <mxGeometry x="2490" y="-1131" width="130" height="50" as="geometry" />
        </mxCell>
      </root>
    </mxGraphModel>
  </diagram>
</mxfile>
